<svg width="79" height="78" viewBox="0 0 79 78" fill="none" xmlns="http://www.w3.org/2000/svg">
<circle cx="39.5" cy="39" r="38.5" fill="white" stroke="#1070FF"/>
<path d="M18.3992 61.5003C19.2462 62.4181 22.7347 60.8175 25.4882 59.534C27.5515 58.5751 35.8083 55.1873 39.9124 53.43C41.0205 52.9562 42.6323 52.3368 43.7927 50.8108C44.8225 49.4527 47.5536 43.6846 42.054 37.8417C36.4724 31.9094 30.7229 33.5473 28.5738 35.0696C27.309 35.965 26.2792 37.9835 25.8165 39.0096C23.8615 43.345 21.0744 51.2884 19.9402 54.4113C19.1081 56.7133 17.5598 60.5899 18.3992 61.5003Z" fill="#FFC107"/>
<path d="M25.2644 40.3154C25.3166 40.9646 25.4472 42.0205 25.8949 44.0539C26.2009 45.4493 26.7008 46.9119 27.1075 47.8782C28.3276 50.7847 30.0401 51.9563 31.7751 52.8965C34.7226 54.4934 36.7261 54.7919 36.7261 54.7919L34.3233 55.7731C34.3233 55.7731 32.8682 55.4709 30.8833 54.4934C28.9917 53.5606 27.0217 51.9824 25.5815 48.8931C24.9584 47.5536 24.5965 46.2552 24.3876 45.2255C24.1302 43.9495 24.0891 43.2256 24.0891 43.2256L25.2644 40.3154Z" fill="#FF8F00"/>
<path d="M22.3132 47.8818C22.3132 47.8818 22.6117 50.3033 24.6115 53.359C26.9546 56.9333 30.2267 57.5191 30.2267 57.5191L28.0515 58.4146C28.0515 58.4146 25.6226 57.6721 23.3131 54.5194C21.8729 52.5531 21.47 50.2025 21.47 50.2025L22.3132 47.8818Z" fill="#FF8F00"/>
<path d="M20.2424 53.6201C20.2424 53.6201 20.7871 55.7095 21.981 57.2691C23.4026 59.1309 25.2121 59.6719 25.2121 59.6719L23.5444 60.4106C23.5444 60.4106 22.2795 60.1457 20.8953 58.3921C19.8432 57.0601 19.5447 55.5304 19.5447 55.5304L20.2424 53.6201Z" fill="#FF8F00"/>
<path opacity="0.44" d="M19.3358 58.926C19.2612 58.7581 19.2612 58.5678 19.3395 58.4036L28.8425 38.6963L30.4058 44.5727L20.4066 59.0155C20.138 59.4185 19.5335 59.3662 19.3358 58.926Z" fill="#FFFDE7"/>
<path d="M31.1594 46.5461C35.5993 51.7397 40.6548 51.0905 42.3375 49.7772C44.024 48.4601 45.356 43.9344 40.9347 38.8266C36.3007 33.4763 31.0549 35.0023 29.8423 36.1589C28.6297 37.3155 27.0851 41.7816 31.1594 46.5461Z" fill="url(#paint0_linear_5876_50874)"/>
<path d="M46.4082 48.684C44.7889 47.3259 43.927 47.5684 42.7704 48.0497C41.278 48.6691 38.9312 49.128 35.7449 48.0497L36.7037 45.7402C38.5954 46.3782 39.9647 46.0685 41.1474 45.3708C42.6697 44.4754 44.7516 43.2479 47.9901 45.9678C49.3408 47.102 50.725 47.8557 51.7398 47.5124C52.4786 47.2662 52.8703 46.1655 53.0681 45.2887C53.0867 45.2104 53.1166 44.9865 53.139 44.7888C53.3181 43.4195 53.6165 40.4645 55.8179 38.9534C58.1721 37.3379 60.6458 37.3379 60.6458 37.3379L61.0935 41.7853C59.9556 41.6174 59.1646 41.8487 58.4967 42.2181C55.982 43.6172 58.1721 48.9899 54.2583 50.7957C50.4937 52.5456 47.4156 49.5272 46.4082 48.684Z" fill="#03A9F4"/>
<path d="M32.5584 43.0128L30.9391 41.5614C33.9127 38.2408 33.1292 35.8007 32.5584 34.0247C32.4427 33.6665 32.3345 33.327 32.2636 33.0024C32.0099 31.8533 31.9577 30.8533 32.036 29.9803C30.8943 28.5588 30.3906 27.0701 30.357 26.9693C29.6631 24.8688 30.1854 22.8204 31.3831 20.8989C33.8045 17 38.1885 17 38.1885 17L39.6511 20.9139C38.5392 20.8691 34.894 20.9251 33.7747 22.6898C32.3606 24.9135 33.2896 26.2866 33.3568 26.4433C33.6292 26.0888 33.9053 25.8053 34.1515 25.5851C35.9387 23.9994 37.4908 23.7718 38.4795 23.8614C39.5914 23.9621 40.5987 24.5218 41.3188 25.4396C42.1061 26.447 42.4307 27.7566 42.1807 28.9468C41.9382 30.1071 41.1659 31.0884 40.0055 31.7115C37.9795 32.8009 36.2931 32.6517 35.1626 32.2749C35.1701 32.301 35.1738 32.3308 35.1813 32.357C35.2223 32.5435 35.3044 32.8047 35.4014 33.1069C36.0618 35.1515 37.2893 38.3975 32.5584 43.0128ZM35.3007 29.0102C35.5171 29.1669 35.7447 29.2975 35.9797 29.3908C36.7632 29.7042 37.6176 29.5997 38.5877 29.0774C39.1586 28.7714 39.2257 28.4431 39.2481 28.3349C39.3153 28.0103 39.2033 27.5961 38.9608 27.2865C38.7481 27.0141 38.5019 26.8723 38.2071 26.8425C37.6475 26.794 36.8901 27.1484 36.1327 27.8237C35.7708 28.1483 35.4947 28.5476 35.3007 29.0102Z" fill="#F44336"/>
<path d="M39.0394 43.6207L36.7224 43.5572C36.7224 43.5572 37.8231 37.3413 41.3862 36.2966C42.0541 36.1026 42.7853 35.9049 43.5204 35.7967C43.9569 35.7295 44.6471 35.6288 44.9867 35.5019C45.065 34.9162 44.8188 34.17 44.5427 33.323C44.3263 32.6663 44.1024 31.991 43.983 31.2523C43.7517 29.8121 44.136 28.5398 45.065 27.663C46.1992 26.5997 48.0312 26.2602 50.0982 26.7303C51.2772 26.9989 52.1465 27.5772 52.9114 28.0846C54.0046 28.8122 54.6426 29.1816 55.9783 28.2824C57.5938 27.1929 55.4821 22.9283 54.359 20.4659L58.549 18.7197C59.1124 19.951 61.8323 26.2863 60.0377 29.9016C59.4332 31.118 58.3923 31.9239 57.0267 32.2261C54.0568 32.8902 52.3182 31.7336 51.0496 30.8904C50.4489 30.4912 49.9228 30.1777 49.352 30.0136C45.3859 28.8831 50.9227 34.7184 48.3297 37.3413C46.7738 38.9121 42.9719 39.3263 42.7257 39.3859C40.2781 39.9755 39.0394 43.6207 39.0394 43.6207Z" fill="#F48FB1"/>
<path d="M32.0324 29.9805C31.9615 30.8013 31.9279 31.2901 32.1406 32.3571C33.1666 33.1108 35.4015 33.1108 35.4015 33.1108C35.3045 32.8086 35.2187 32.5474 35.1814 32.3609C35.1739 32.3348 35.1702 32.3049 35.1628 32.2788C32.8906 31.1446 32.0324 29.9805 32.0324 29.9805Z" fill="#C92B27"/>
<path d="M27.3835 33.6558L23.5256 31.7642L25.4471 28.9883L28.473 30.9918L27.3835 33.6558Z" fill="#FFC107"/>
<path d="M21.6974 28.4174C19.7274 28.1525 17.7201 26.481 17.5 26.2908L19.4364 24.0186C20.0222 24.5148 21.2646 25.3468 22.0966 25.4587L21.6974 28.4174Z" fill="#FB8C00"/>
<path d="M25.1747 23.444L22.3391 22.5149C22.6637 21.5225 22.7495 20.4517 22.5816 19.4182L25.5291 18.9443C25.7717 20.4442 25.6485 22.0001 25.1747 23.444Z" fill="#03A9F4"/>
<path d="M42.8833 21.2256L45.7992 20.5877L46.6412 24.4367L43.7253 25.0745L42.8833 21.2256Z" fill="#FB8C00"/>
<path d="M50.1168 22.1377L48.0647 19.97C49.1392 18.9514 49.3855 17.6194 49.3855 17.6045L52.333 18.0858C52.2957 18.3209 51.9189 20.4326 50.1168 22.1377Z" fill="#FFC107"/>
<path d="M51.2571 33.6338L53.8639 32.8191L54.7543 35.6681L52.1475 36.4828L51.2571 33.6338Z" fill="#FB8C00"/>
<path d="M52.0158 57.6798L49.0496 57.3291C49.1765 56.2732 48.3893 54.9786 48.1729 54.6913L50.5607 52.9004C50.7398 53.1354 52.2957 55.2883 52.0158 57.6798Z" fill="#F44336"/>
<path d="M60.53 53.8965C59.4144 53.7286 58.2727 53.6614 57.1459 53.7025L57.0452 50.7176C58.3548 50.6729 59.6793 50.7475 60.9739 50.9452L60.53 53.8965Z" fill="#FB8C00"/>
<path d="M56.5168 58.0049L58.614 55.8809L61.5 58.7304L59.4028 60.8544L56.5168 58.0049Z" fill="#F48FB1"/>
<path d="M50.3552 39.1367L52.5117 41.6025L50.046 43.7589L47.8895 41.2932L50.3552 39.1367Z" fill="#F44336"/>
<defs>
<linearGradient id="paint0_linear_5876_50874" x1="43.3726" y1="38.5798" x2="32.2664" y2="45.2436" gradientUnits="userSpaceOnUse">
<stop offset="0.0235" stop-color="#8F4700"/>
<stop offset="1" stop-color="#703E2D"/>
</linearGradient>
</defs>
</svg>
