<svg width="134" height="134" viewBox="0 0 134 134" fill="none" xmlns="http://www.w3.org/2000/svg">
<circle cx="67" cy="67" r="67" fill="#1070FF"/>
<path d="M66.5 27C58.4899 27 50.6596 29.4046 43.9994 33.9097C37.3392 38.4149 32.1482 44.8182 29.0829 52.31C26.0175 59.8017 25.2155 68.0455 26.7782 75.9987C28.3409 83.9519 32.1982 91.2574 37.8622 96.9914C43.5262 102.725 50.7426 106.63 58.5989 108.212C66.4551 109.794 74.5983 108.982 81.9987 105.879C89.3991 102.776 95.7243 97.5208 100.175 90.7784C104.625 84.036 107 76.109 107 68C107 62.6158 105.952 57.2843 103.917 52.31C101.882 47.3356 98.8986 42.8158 95.1378 39.0086C91.3771 35.2014 86.9124 32.1814 81.9987 30.1209C77.085 28.0605 71.8185 27 66.5 27V27ZM83.915 58.201L65.4065 82.801C65.0292 83.2972 64.5447 83.6992 63.9901 83.9764C63.4355 84.2536 62.8255 84.3985 62.207 84.4C61.5918 84.4033 60.984 84.2648 60.4296 83.9948C59.8753 83.7249 59.3889 83.3306 59.0075 82.842L49.1255 70.091C48.7984 69.6656 48.5573 69.1792 48.4159 68.6595C48.2745 68.1399 48.2356 67.5971 48.3014 67.0621C48.3672 66.5272 48.5365 66.0107 48.7995 65.542C49.0625 65.0733 49.4141 64.6616 49.8343 64.3305C50.6828 63.6617 51.759 63.3616 52.8262 63.4962C53.3546 63.5628 53.8648 63.7342 54.3278 64.0004C54.7908 64.2667 55.1974 64.6226 55.5245 65.048L62.126 73.576L77.435 53.076C77.7594 52.6453 78.1645 52.2834 78.6271 52.0112C79.0896 51.7389 79.6006 51.5615 80.1309 51.4892C80.6612 51.4169 81.2003 51.451 81.7176 51.5896C82.2348 51.7282 82.72 51.9686 83.1455 52.297C83.571 52.6254 83.9284 53.0355 84.1973 53.5038C84.4663 53.972 84.6415 54.4893 84.7129 55.0262C84.7844 55.563 84.7507 56.1088 84.6138 56.6324C84.4769 57.1561 84.2394 57.6473 83.915 58.078V58.201Z" fill="#EAF4FF"/>
</svg>
