<svg width="73" height="72" viewBox="0 0 73 72" fill="none" xmlns="http://www.w3.org/2000/svg">
<path d="M31.1665 27.667C30.6198 27.667 30.1665 27.2137 30.1665 26.667V22.667C30.1665 22.1203 30.6198 21.667 31.1665 21.667C31.7132 21.667 32.1665 22.1203 32.1665 22.667V26.667C32.1665 27.2137 31.7132 27.667 31.1665 27.667Z" fill="#003585"/>
<path d="M41.8335 27.667C41.2868 27.667 40.8335 27.2137 40.8335 26.667V22.667C40.8335 22.1203 41.2868 21.667 41.8335 21.667C42.3802 21.667 42.8335 22.1203 42.8335 22.667V26.667C42.8335 27.2137 42.3802 27.667 41.8335 27.667Z" fill="#003585"/>
<path d="M31.8333 39.3331C31.66 39.3331 31.4867 39.2931 31.3267 39.2264C31.1533 39.1598 31.02 39.0664 30.8867 38.9464C30.6467 38.6931 30.5 38.3598 30.5 37.9998C30.5 37.8264 30.54 37.6531 30.6067 37.4931C30.6733 37.3331 30.7667 37.1864 30.8867 37.0531C31.02 36.9331 31.1533 36.8397 31.3267 36.7731C31.8067 36.5731 32.4067 36.6798 32.78 37.0531C33.02 37.3064 33.1667 37.6531 33.1667 37.9998C33.1667 38.0798 33.1533 38.1731 33.14 38.2664C33.1267 38.3464 33.1 38.4264 33.06 38.5064C33.0333 38.5864 32.9933 38.6664 32.94 38.7464C32.9 38.8131 32.8333 38.8798 32.78 38.9464C32.5267 39.1864 32.18 39.3331 31.8333 39.3331Z" fill="#003585"/>
<path d="M36.4998 39.3332C36.3265 39.3332 36.1532 39.2932 35.9932 39.2265C35.8198 39.1598 35.6865 39.0665 35.5532 38.9465C35.3132 38.6932 35.1665 38.3598 35.1665 37.9998C35.1665 37.8265 35.2065 37.6532 35.2732 37.4932C35.3398 37.3332 35.4332 37.1865 35.5532 37.0532C35.6865 36.9332 35.8198 36.8398 35.9932 36.7731C36.4732 36.5598 37.0732 36.6798 37.4465 37.0532C37.6865 37.3065 37.8332 37.6532 37.8332 37.9998C37.8332 38.0798 37.8198 38.1732 37.8065 38.2665C37.7932 38.3465 37.7665 38.4265 37.7265 38.5065C37.6998 38.5865 37.6598 38.6665 37.6065 38.7465C37.5665 38.8132 37.4998 38.8798 37.4465 38.9465C37.1932 39.1865 36.8465 39.3332 36.4998 39.3332Z" fill="#003585"/>
<path d="M41.1668 39.3332C40.9935 39.3332 40.8202 39.2932 40.6602 39.2265C40.4868 39.1598 40.3535 39.0665 40.2202 38.9465C40.1668 38.8798 40.1135 38.8132 40.0602 38.7465C40.0068 38.6665 39.9668 38.5865 39.9402 38.5065C39.9002 38.4265 39.8735 38.3465 39.8602 38.2665C39.8468 38.1732 39.8335 38.0798 39.8335 37.9998C39.8335 37.6532 39.9802 37.3065 40.2202 37.0532C40.3535 36.9332 40.4868 36.8398 40.6602 36.7731C41.1535 36.5598 41.7402 36.6798 42.1135 37.0532C42.3535 37.3065 42.5002 37.6532 42.5002 37.9998C42.5002 38.0798 42.4868 38.1732 42.4735 38.2665C42.4602 38.3465 42.4335 38.4265 42.3935 38.5065C42.3668 38.5865 42.3268 38.6665 42.2735 38.7465C42.2335 38.8132 42.1668 38.8798 42.1135 38.9465C41.8602 39.1865 41.5135 39.3332 41.1668 39.3332Z" fill="#003585"/>
<path d="M31.8333 43.9996C31.66 43.9996 31.4867 43.9596 31.3267 43.893C31.1667 43.8263 31.02 43.7329 30.8867 43.6129C30.6467 43.3596 30.5 43.0129 30.5 42.6663C30.5 42.4929 30.54 42.3196 30.6067 42.1596C30.6733 41.9863 30.7667 41.8396 30.8867 41.7196C31.38 41.2263 32.2867 41.2263 32.78 41.7196C33.02 41.9729 33.1667 42.3196 33.1667 42.6663C33.1667 43.0129 33.02 43.3596 32.78 43.6129C32.5267 43.8529 32.18 43.9996 31.8333 43.9996Z" fill="#003585"/>
<path d="M36.4998 43.9996C36.1532 43.9996 35.8065 43.8529 35.5532 43.6129C35.3132 43.3596 35.1665 43.0129 35.1665 42.6663C35.1665 42.4929 35.2065 42.3196 35.2732 42.1596C35.3398 41.9863 35.4332 41.8396 35.5532 41.7196C36.0465 41.2263 36.9532 41.2263 37.4465 41.7196C37.5665 41.8396 37.6598 41.9863 37.7265 42.1596C37.7932 42.3196 37.8332 42.4929 37.8332 42.6663C37.8332 43.0129 37.6865 43.3596 37.4465 43.6129C37.1932 43.8529 36.8465 43.9996 36.4998 43.9996Z" fill="#003585"/>
<path d="M41.1668 43.9999C40.8202 43.9999 40.4735 43.8532 40.2202 43.6132C40.1002 43.4932 40.0068 43.3466 39.9402 43.1732C39.8735 43.0132 39.8335 42.8399 39.8335 42.6666C39.8335 42.4932 39.8735 42.3199 39.9402 42.1599C40.0068 41.9865 40.1002 41.8399 40.2202 41.7199C40.5268 41.4132 40.9935 41.2665 41.4202 41.3599C41.5135 41.3732 41.5935 41.3999 41.6735 41.4399C41.7535 41.4665 41.8335 41.5066 41.9135 41.5599C41.9802 41.5999 42.0468 41.6666 42.1135 41.7199C42.3535 41.9732 42.5002 42.3199 42.5002 42.6666C42.5002 43.0132 42.3535 43.3599 42.1135 43.6132C41.8602 43.8532 41.5135 43.9999 41.1668 43.9999Z" fill="#003585"/>
<path d="M47.8332 33.1201H25.1665C24.6198 33.1201 24.1665 32.6668 24.1665 32.1201C24.1665 31.5735 24.6198 31.1201 25.1665 31.1201H47.8332C48.3798 31.1201 48.8332 31.5735 48.8332 32.1201C48.8332 32.6668 48.3798 33.1201 47.8332 33.1201Z" fill="#003585"/>
<path d="M41.8333 50.3337H31.1667C26.3 50.3337 23.5 47.5337 23.5 42.667V31.3337C23.5 26.467 26.3 23.667 31.1667 23.667H41.8333C46.7 23.667 49.5 26.467 49.5 31.3337V42.667C49.5 47.5337 46.7 50.3337 41.8333 50.3337ZM31.1667 25.667C27.3533 25.667 25.5 27.5203 25.5 31.3337V42.667C25.5 46.4803 27.3533 48.3337 31.1667 48.3337H41.8333C45.6467 48.3337 47.5 46.4803 47.5 42.667V31.3337C47.5 27.5203 45.6467 25.667 41.8333 25.667H31.1667Z" fill="#003585"/>
<circle cx="36.5" cy="36" r="35.5" fill="white" fill-opacity="0.02" stroke="#245195"/>
</svg>
