<svg width="48" height="48" viewBox="0 0 48 48" fill="none" xmlns="http://www.w3.org/2000/svg">
<path d="M30.0004 45.5C29.4604 45.5 28.9604 45.2 28.7004 44.74C28.4404 44.28 28.4404 43.7 28.7204 43.24L30.8204 39.74C31.2404 39.02 32.1604 38.8 32.8804 39.22C33.6004 39.64 33.8204 40.56 33.4004 41.28L32.8604 42.1801C38.3804 40.8801 42.5204 35.92 42.5204 30C42.5204 29.18 43.2004 28.5 44.0204 28.5C44.8404 28.5 45.5204 29.18 45.5204 30C45.5004 38.54 38.5404 45.5 30.0004 45.5Z" fill="#00255C"/>
<path d="M4 19.5C3.18 19.5 2.5 18.82 2.5 18C2.5 9.46 9.46 2.5 18 2.5C18.54 2.5 19.04 2.80001 19.3 3.26001C19.56 3.72001 19.56 4.30001 19.28 4.76001L17.18 8.26001C16.76 8.98001 15.84 9.20003 15.12 8.78003C14.4 8.36003 14.18 7.43997 14.6 6.71997L15.14 5.81995C9.62001 7.11995 5.48001 12.08 5.48001 18C5.50001 18.82 4.82 19.5 4 19.5Z" fill="#00255C"/>
<path d="M35.3607 14.9993C35.1007 14.9993 34.8407 14.9393 34.6007 14.7993L26.6607 10.1992C25.9407 9.77921 25.7007 8.85927 26.1207 8.13927C26.5407 7.41927 27.4607 7.17923 28.1607 7.59923L35.3607 11.7593L42.5007 7.61925C43.2207 7.19925 44.1407 7.45929 44.5407 8.15929C44.9607 8.87929 44.7007 9.79923 44.0007 10.2192L36.1007 14.7793C35.8807 14.9193 35.6207 14.9993 35.3607 14.9993Z" fill="#00255C"/>
<path d="M35.3594 23.1395C34.5394 23.1395 33.8594 22.4595 33.8594 21.6395V13.4795C33.8594 12.6595 34.5394 11.9795 35.3594 11.9795C36.1794 11.9795 36.8594 12.6595 36.8594 13.4795V21.6395C36.8594 22.4795 36.1794 23.1395 35.3594 23.1395Z" fill="#00255C"/>
<path d="M35.3587 23.5004C34.4387 23.5004 33.4988 23.3004 32.7588 22.8804L27.9587 20.2203C26.3987 19.3603 25.2188 17.3404 25.2188 15.5604V10.4804C25.2188 8.68036 26.3988 6.68042 27.9788 5.80042L32.7787 3.14039C34.2587 2.32039 36.4788 2.32039 37.9788 3.14039L42.7787 5.80042C44.3387 6.66042 45.5187 8.68034 45.5187 10.4603V15.5404C45.5187 17.3404 44.3387 19.3403 42.7787 20.2003L37.9788 22.8604C37.1988 23.3004 36.2787 23.5004 35.3587 23.5004ZM34.2188 5.74037L29.4188 8.4004C28.8188 8.7404 28.2188 9.76032 28.2188 10.4403V15.5204C28.2188 16.2204 28.8188 17.2404 29.4188 17.5604L34.2188 20.2404C34.7987 20.5604 35.9187 20.5604 36.4987 20.2404L41.2987 17.5803C41.8987 17.2403 42.4987 16.2204 42.4987 15.5404V10.4603C42.4987 9.76034 41.8987 8.74042 41.2987 8.42042L36.4987 5.76039C35.9187 5.42039 34.7788 5.42037 34.2188 5.74037Z" fill="#00255C"/>
<path d="M12.642 36.9993C12.382 36.9993 12.122 36.9393 11.882 36.7993L3.94199 32.1992C3.22199 31.7792 2.98198 30.8593 3.40198 30.1393C3.82198 29.4193 4.74199 29.1792 5.44199 29.5992L12.642 33.7593L19.782 29.6193C20.502 29.1993 21.422 29.4593 21.822 30.1593C22.242 30.8793 21.982 31.7992 21.282 32.2192L13.382 36.7793C13.162 36.9193 12.902 36.9993 12.642 36.9993Z" fill="#00255C"/>
<path d="M12.6406 45.1395C11.8206 45.1395 11.1406 44.4595 11.1406 43.6395V35.4795C11.1406 34.6595 11.8206 33.9795 12.6406 33.9795C13.4606 33.9795 14.1406 34.6595 14.1406 35.4795V43.6395C14.1406 44.4795 13.4806 45.1395 12.6406 45.1395Z" fill="#00255C"/>
<path d="M12.64 45.4999C11.72 45.4999 10.78 45.2999 10.04 44.8799L5.23999 42.2199C3.67999 41.3599 2.5 39.3399 2.5 37.5599V32.4799C2.5 30.6799 3.67999 28.6798 5.23999 27.8198L10.04 25.1599C11.52 24.3399 13.76 24.3399 15.24 25.1599L20.04 27.8198C21.6 28.6798 22.78 30.6999 22.78 32.4799V37.5599C22.78 39.3599 21.6 41.3599 20.02 42.2399L15.22 44.8999C14.5 45.2999 13.58 45.4999 12.64 45.4999ZM11.5 27.7399L6.70001 30.3999C6.10001 30.7399 5.5 31.7598 5.5 32.4398V37.5199C5.5 38.2199 6.10001 39.2399 6.70001 39.5599L11.5 42.2199C12.08 42.5399 13.2 42.5399 13.78 42.2199L18.58 39.5599C19.18 39.2199 19.78 38.1999 19.78 37.5199V32.4398C19.78 31.7398 19.18 30.7199 18.58 30.3999L13.78 27.7199C13.22 27.4199 12.08 27.4199 11.5 27.7399Z" fill="#00255C"/>
</svg>
