<svg width="48" height="48" viewBox="0 0 48 48" fill="none" xmlns="http://www.w3.org/2000/svg">
<rect width="48" height="48" rx="10" fill="white"/>
<path d="M20 17.75C19.59 17.75 19.25 17.41 19.25 17V14C19.25 13.59 19.59 13.25 20 13.25C20.41 13.25 20.75 13.59 20.75 14V17C20.75 17.41 20.41 17.75 20 17.75Z" fill="#1070FF"/>
<path d="M28 17.75C27.59 17.75 27.25 17.41 27.25 17V14C27.25 13.59 27.59 13.25 28 13.25C28.41 13.25 28.75 13.59 28.75 14V17C28.75 17.41 28.41 17.75 28 17.75Z" fill="#1070FF"/>
<path d="M20.5 26.5003C20.37 26.5003 20.24 26.4803 20.12 26.4203C20 26.3703 19.89 26.3003 19.79 26.2103C19.61 26.0203 19.5 25.7603 19.5 25.5003C19.5 25.3703 19.53 25.2403 19.58 25.1203C19.63 25.0003 19.7 24.8903 19.79 24.7903C19.89 24.7003 20 24.6303 20.12 24.5803C20.48 24.4303 20.93 24.5103 21.21 24.7903C21.3 24.8903 21.37 25.0003 21.42 25.1203C21.47 25.2403 21.5 25.3703 21.5 25.5003C21.5 25.7603 21.39 26.0203 21.21 26.2103C21.02 26.3903 20.76 26.5003 20.5 26.5003Z" fill="#1070FF"/>
<path d="M24 26.4999C23.74 26.4999 23.48 26.3899 23.29 26.2099C23.2 26.1099 23.13 25.9999 23.08 25.8799C23.03 25.7599 23 25.6299 23 25.4999C23 25.2399 23.11 24.9799 23.29 24.7899C23.57 24.5099 24.01 24.4199 24.38 24.5799C24.5 24.6299 24.61 24.6999 24.71 24.7899C24.89 24.9799 25 25.2399 25 25.4999C25 25.6299 24.98 25.7599 24.92 25.8799C24.87 25.9999 24.8 26.1099 24.71 26.2099C24.61 26.2999 24.5 26.3699 24.38 26.4199C24.26 26.4799 24.13 26.4999 24 26.4999Z" fill="#1070FF"/>
<path d="M20.5 29.9999C20.37 29.9999 20.24 29.9699 20.12 29.9199C20 29.8699 19.89 29.7999 19.79 29.7099C19.61 29.5199 19.5 29.2699 19.5 28.9999C19.5 28.8699 19.53 28.7399 19.58 28.6199C19.63 28.4899 19.7 28.3899 19.79 28.2899C19.89 28.1999 20 28.1299 20.12 28.0799C20.48 27.9199 20.93 28.0099 21.21 28.2899C21.3 28.3899 21.37 28.4899 21.42 28.6199C21.47 28.7399 21.5 28.8699 21.5 28.9999C21.5 29.2699 21.39 29.5199 21.21 29.7099C21.02 29.8899 20.76 29.9999 20.5 29.9999Z" fill="#1070FF"/>
<path d="M32.5 21.8398H15.5C15.09 21.8398 14.75 21.4998 14.75 21.0898C14.75 20.6798 15.09 20.3398 15.5 20.3398H32.5C32.91 20.3398 33.25 20.6798 33.25 21.0898C33.25 21.4998 32.91 21.8398 32.5 21.8398Z" fill="#1070FF"/>
<path d="M30 35.75C27.38 35.75 25.25 33.62 25.25 31C25.25 28.38 27.38 26.25 30 26.25C32.62 26.25 34.75 28.38 34.75 31C34.75 33.62 32.62 35.75 30 35.75ZM30 27.75C28.21 27.75 26.75 29.21 26.75 31C26.75 32.79 28.21 34.25 30 34.25C31.79 34.25 33.25 32.79 33.25 31C33.25 29.21 31.79 27.75 30 27.75Z" fill="#1070FF"/>
<path d="M31.49 31.7998H28.5C28.09 31.7998 27.75 31.4598 27.75 31.0498C27.75 30.6398 28.09 30.2998 28.5 30.2998H31.49C31.9 30.2998 32.24 30.6398 32.24 31.0498C32.24 31.4598 31.91 31.7998 31.49 31.7998Z" fill="#1070FF"/>
<path d="M30 33.3298C29.59 33.3298 29.25 32.9898 29.25 32.5798V29.5898C29.25 29.1798 29.59 28.8398 30 28.8398C30.41 28.8398 30.75 29.1798 30.75 29.5898V32.5798C30.75 32.9898 30.41 33.3298 30 33.3298Z" fill="#1070FF"/>
<path d="M27.37 34.75H20C16.35 34.75 14.25 32.65 14.25 29V20.5C14.25 16.85 16.35 14.75 20 14.75H28C31.65 14.75 33.75 16.85 33.75 20.5V28.36C33.75 28.67 33.56 28.95 33.26 29.06C32.97 29.17 32.64 29.09 32.43 28.85C31.81 28.15 30.92 27.75 29.99 27.75C28.2 27.75 26.74 29.21 26.74 31C26.74 31.59 26.9 32.17 27.21 32.67C27.38 32.97 27.6 33.22 27.84 33.43C28.08 33.63 28.17 33.96 28.06 34.26C27.97 34.55 27.69 34.75 27.37 34.75ZM20 16.25C17.14 16.25 15.75 17.64 15.75 20.5V29C15.75 31.86 17.14 33.25 20 33.25H25.82C25.45 32.57 25.25 31.8 25.25 31C25.25 28.38 27.38 26.25 30 26.25C30.79 26.25 31.57 26.45 32.25 26.82V20.5C32.25 17.64 30.86 16.25 28 16.25H20Z" fill="#1070FF"/>
</svg>
