<svg width="48" height="48" viewBox="0 0 48 48" fill="none" xmlns="http://www.w3.org/2000/svg">
<rect width="48" height="48" rx="10" fill="white"/>
<path d="M20 17.75C19.59 17.75 19.25 17.41 19.25 17V14C19.25 13.59 19.59 13.25 20 13.25C20.41 13.25 20.75 13.59 20.75 14V17C20.75 17.41 20.41 17.75 20 17.75Z" fill="#1070FF"/>
<path d="M28 17.75C27.59 17.75 27.25 17.41 27.25 17V14C27.25 13.59 27.59 13.25 28 13.25C28.41 13.25 28.75 13.59 28.75 14V17C28.75 17.41 28.41 17.75 28 17.75Z" fill="#1070FF"/>
<path d="M20.5 26.5002C20.24 26.5002 19.98 26.3902 19.79 26.2102C19.61 26.0202 19.5 25.7702 19.5 25.5002C19.5 25.3702 19.53 25.2402 19.58 25.1202C19.63 25.0002 19.7 24.8902 19.79 24.7902C20.16 24.4202 20.83 24.4202 21.21 24.7902C21.39 24.9802 21.5 25.2402 21.5 25.5002C21.5 25.5602 21.49 25.6302 21.48 25.7002C21.47 25.7602 21.45 25.8202 21.42 25.8802C21.4 25.9402 21.37 26.0002 21.33 26.0602C21.29 26.1102 21.25 26.1602 21.21 26.2102C21.02 26.3902 20.76 26.5002 20.5 26.5002Z" fill="#1070FF"/>
<path d="M24 26.5003C23.87 26.5003 23.74 26.4703 23.62 26.4203C23.49 26.3703 23.39 26.3003 23.29 26.2103C23.11 26.0203 23 25.7703 23 25.5003C23 25.3703 23.03 25.2403 23.08 25.1203C23.13 25.0003 23.2 24.8903 23.29 24.7903C23.39 24.7003 23.49 24.6303 23.62 24.5803C23.99 24.4303 24.43 24.5103 24.71 24.7903C24.89 24.9803 25 25.2403 25 25.5003C25 25.5603 24.99 25.6303 24.98 25.7003C24.97 25.7603 24.95 25.8203 24.92 25.8803C24.9 25.9403 24.87 26.0003 24.83 26.0603C24.8 26.1103 24.75 26.1603 24.71 26.2103C24.52 26.3903 24.26 26.5003 24 26.5003Z" fill="#1070FF"/>
<path d="M20.5 29.9998C20.37 29.9998 20.24 29.9698 20.12 29.9198C19.99 29.8698 19.88 29.7998 19.79 29.7098C19.7 29.6198 19.63 29.5098 19.58 29.3798C19.53 29.2598 19.5 29.1298 19.5 28.9998C19.5 28.8698 19.53 28.7398 19.58 28.6198C19.63 28.4898 19.7 28.3798 19.79 28.2898C19.88 28.1998 19.99 28.1298 20.12 28.0798C20.36 27.9798 20.64 27.9698 20.88 28.0798C21.01 28.1298 21.12 28.1998 21.21 28.2898C21.3 28.3798 21.37 28.4898 21.42 28.6198C21.47 28.7398 21.5 28.8698 21.5 28.9998C21.5 29.1298 21.47 29.2598 21.42 29.3798C21.37 29.5098 21.3 29.6198 21.21 29.7098C21.12 29.7998 21.01 29.8698 20.88 29.9198C20.76 29.9698 20.63 29.9998 20.5 29.9998Z" fill="#1070FF"/>
<path d="M32.5 21.8398H15.5C15.09 21.8398 14.75 21.4998 14.75 21.0898C14.75 20.6798 15.09 20.3398 15.5 20.3398H32.5C32.91 20.3398 33.25 20.6798 33.25 21.0898C33.25 21.4998 32.91 21.8398 32.5 21.8398Z" fill="#1070FF"/>
<path d="M30 35.75C28.83 35.75 27.72 35.33 26.87 34.56C26.51 34.26 26.19 33.88 25.93 33.44C25.49 32.72 25.25 31.87 25.25 31C25.25 28.38 27.38 26.25 30 26.25C31.36 26.25 32.66 26.84 33.56 27.86C34.33 28.74 34.75 29.85 34.75 31C34.75 31.87 34.51 32.72 34.06 33.45C33.22 34.87 31.66 35.75 30 35.75ZM30 27.75C28.21 27.75 26.75 29.21 26.75 31C26.75 31.59 26.91 32.17 27.22 32.67C27.39 32.97 27.61 33.22 27.85 33.43C28.45 33.97 29.2 34.25 30 34.25C31.15 34.25 32.19 33.66 32.78 32.68C33.09 32.17 33.25 31.6 33.25 31C33.25 30.22 32.96 29.46 32.44 28.85C31.82 28.15 30.93 27.75 30 27.75Z" fill="#1070FF"/>
<path d="M29.4299 32.7396C29.2399 32.7396 29.0499 32.6695 28.8999 32.5195L27.9099 31.5296C27.6199 31.2396 27.6199 30.7596 27.9099 30.4696C28.1999 30.1796 28.6799 30.1796 28.9699 30.4696L29.4499 30.9496L31.0499 29.4696C31.3499 29.1896 31.8299 29.2096 32.1099 29.5096C32.3899 29.8096 32.3699 30.2896 32.0699 30.5696L29.9399 32.5396C29.7899 32.6696 29.6099 32.7396 29.4299 32.7396Z" fill="#1070FF"/>
<path d="M27.37 34.75H20C16.35 34.75 14.25 32.65 14.25 29V20.5C14.25 16.85 16.35 14.75 20 14.75H28C31.65 14.75 33.75 16.85 33.75 20.5V28.36C33.75 28.67 33.56 28.95 33.26 29.06C32.97 29.17 32.64 29.09 32.43 28.85C31.81 28.15 30.92 27.75 29.99 27.75C28.2 27.75 26.74 29.21 26.74 31C26.74 31.59 26.9 32.17 27.21 32.67C27.38 32.97 27.6 33.22 27.84 33.43C28.08 33.63 28.17 33.96 28.06 34.26C27.97 34.55 27.69 34.75 27.37 34.75ZM20 16.25C17.14 16.25 15.75 17.64 15.75 20.5V29C15.75 31.86 17.14 33.25 20 33.25H25.82C25.45 32.57 25.25 31.8 25.25 31C25.25 28.38 27.38 26.25 30 26.25C30.79 26.25 31.57 26.45 32.25 26.82V20.5C32.25 17.64 30.86 16.25 28 16.25H20Z" fill="#1070FF"/>
</svg>
