<svg width="48" height="48" viewBox="0 0 48 48" fill="none" xmlns="http://www.w3.org/2000/svg">
<path d="M26 45.5H18C7.14 45.5 2.5 40.86 2.5 30V18C2.5 7.14 7.14 2.5 18 2.5H30C40.86 2.5 45.5 7.14 45.5 18V26C45.5 26.82 44.82 27.5 44 27.5C43.18 27.5 42.5 26.82 42.5 26V18C42.5 8.78 39.22 5.5 30 5.5H18C8.78 5.5 5.5 8.78 5.5 18V30C5.5 39.22 8.78 42.5 18 42.5H26C26.82 42.5 27.5 43.18 27.5 44C27.5 44.82 26.82 45.5 26 45.5Z" fill="#00255C"/>
<path d="M14.6602 30.48C14.3402 30.48 14.0202 30.38 13.7402 30.16C13.0802 29.66 12.9602 28.72 13.4602 28.06L18.2202 21.88C18.8002 21.14 19.6202 20.66 20.5602 20.54C21.5002 20.42 22.4202 20.68 23.1602 21.26L26.8202 24.14C26.9602 24.26 27.1002 24.24 27.2002 24.24C27.2802 24.24 27.4202 24.2 27.5402 24.04L32.1602 18.08C32.6602 17.42 33.6002 17.3 34.2602 17.82C34.9202 18.32 35.0402 19.26 34.5202 19.92L29.9002 25.88C29.3202 26.62 28.5002 27.1 27.5602 27.2C26.6402 27.32 25.7002 27.06 24.9802 26.48L21.3202 23.6C21.1802 23.48 21.0202 23.48 20.9402 23.5C20.8602 23.5 20.7202 23.54 20.6002 23.7L15.8402 29.88C15.5602 30.28 15.1202 30.48 14.6602 30.48Z" fill="#00255C"/>
<path d="M40.5209 45.5005C39.8209 45.5005 38.9209 45.2805 37.8609 44.6405L37.3609 44.3405C37.2209 44.2605 36.8009 44.2605 36.6609 44.3405L36.1609 44.6405C33.8609 46.0205 32.4009 45.4404 31.7609 44.9604C31.1009 44.4804 30.0809 43.2805 30.6809 40.6405L30.7809 40.2205C30.8209 40.0605 30.7009 39.6805 30.6009 39.5605L29.9009 38.8604C28.7209 37.6604 28.2609 36.2605 28.6609 35.0005C29.0609 33.7605 30.2409 32.8805 31.9009 32.6005L32.6609 32.4805C32.8009 32.4405 33.0809 32.2405 33.1609 32.1005L33.7209 30.9604C34.5009 29.3804 35.7009 28.4805 37.0209 28.4805C38.3409 28.4805 39.5409 29.3804 40.3209 30.9604L40.8809 32.0804C40.9609 32.2204 41.2409 32.4204 41.3809 32.4604L42.1409 32.5804C43.8009 32.8604 44.9809 33.7405 45.3809 34.9805C45.7809 36.2205 45.3409 37.6205 44.1409 38.8405L43.4409 39.5405C43.3409 39.6605 43.2209 40.0405 43.2609 40.2005L43.3609 40.6205C43.9609 43.2605 42.9409 44.4605 42.2809 44.9405C41.9209 45.2205 41.3409 45.5005 40.5209 45.5005ZM36.9809 31.5005C36.9609 31.5205 36.6809 31.7204 36.4009 32.3004L35.8409 33.4405C35.3609 34.4205 34.2209 35.2605 33.1609 35.4405L32.4009 35.5605C31.7609 35.6605 31.5409 35.8805 31.5209 35.9205C31.5209 35.9605 31.5809 36.2804 32.0409 36.7404L32.7409 37.4405C33.5609 38.2805 33.9809 39.7204 33.7209 40.8604L33.6209 41.2805C33.4409 42.0605 33.5209 42.4004 33.5609 42.5204C33.6209 42.4804 33.9609 42.4405 34.6209 42.0405L35.1209 41.7404C36.2209 41.0804 37.8009 41.0804 38.9009 41.7404L39.4009 42.0405C40.2209 42.5405 40.5609 42.4805 40.5809 42.4805C40.5009 42.4805 40.6009 42.0805 40.4209 41.2805L40.3209 40.8604C40.0609 39.7004 40.4809 38.2805 41.3009 37.4405L42.0009 36.7404C42.4609 36.2804 42.5209 35.9605 42.5209 35.9005C42.5009 35.8605 42.2809 35.6605 41.6409 35.5405L40.8809 35.4205C39.8009 35.2405 38.6809 34.4005 38.2009 33.4205L37.6409 32.3004C37.3209 31.7004 37.0409 31.5205 36.9809 31.5005Z" fill="#00255C"/>
</svg>
