<svg width="73" height="72" viewBox="0 0 73 72" fill="none" xmlns="http://www.w3.org/2000/svg">
<path d="M32.7129 35.4937C32.6729 35.4937 32.6463 35.4937 32.6063 35.4937C32.5396 35.4803 32.4463 35.4803 32.3663 35.4937C28.4996 35.3737 25.5796 32.3337 25.5796 28.587C25.5796 24.7737 28.6863 21.667 32.4996 21.667C36.3129 21.667 39.4196 24.7737 39.4196 28.587C39.4063 32.3337 36.4729 35.3737 32.7529 35.4937C32.7396 35.4937 32.7263 35.4937 32.7129 35.4937ZM32.4996 23.667C29.7929 23.667 27.5796 25.8803 27.5796 28.587C27.5796 31.2537 29.6596 33.4003 32.3129 33.4937C32.3929 33.4803 32.5663 33.4803 32.7396 33.4937C35.3529 33.3737 37.4063 31.227 37.4196 28.587C37.4196 25.8803 35.2063 23.667 32.4996 23.667Z" fill="#4F58B8"/>
<path d="M42.5527 35.6663C42.5127 35.6663 42.4727 35.6663 42.4327 35.653C41.886 35.7063 41.326 35.3197 41.2727 34.773C41.2193 34.2263 41.5527 33.733 42.0993 33.6663C42.2593 33.653 42.4327 33.653 42.5793 33.653C44.526 33.5463 46.046 31.9463 46.046 29.9863C46.046 27.9597 44.406 26.3197 42.3793 26.3197C41.8327 26.333 41.3793 25.8797 41.3793 25.333C41.3793 24.7863 41.8327 24.333 42.3793 24.333C45.4993 24.333 48.046 26.8797 48.046 29.9997C48.046 33.0663 45.646 35.5463 42.5927 35.6663C42.5793 35.6663 42.566 35.6663 42.5527 35.6663Z" fill="#4F58B8"/>
<path d="M32.7261 50.0663C30.1128 50.0663 27.4861 49.3997 25.4995 48.0663C23.6461 46.8397 22.6328 45.1597 22.6328 43.333C22.6328 41.5063 23.6461 39.813 25.4995 38.573C29.4995 35.9197 35.9795 35.9197 39.9528 38.573C41.7928 39.7997 42.8195 41.4797 42.8195 43.3063C42.8195 45.133 41.8061 46.8263 39.9528 48.0663C37.9528 49.3997 35.3395 50.0663 32.7261 50.0663ZM26.6061 40.253C25.3261 41.1063 24.6328 42.1997 24.6328 43.3463C24.6328 44.4797 25.3395 45.573 26.6061 46.413C29.9261 48.6397 35.5261 48.6397 38.8461 46.413C40.1261 45.5597 40.8195 44.4663 40.8195 43.3197C40.8195 42.1863 40.1128 41.093 38.8461 40.253C35.5261 38.0397 29.9261 38.0397 26.6061 40.253Z" fill="#4F58B8"/>
<path d="M44.9526 47.6667C44.4859 47.6667 44.0726 47.3467 43.9792 46.8667C43.8726 46.32 44.2192 45.8 44.7526 45.68C45.5926 45.5067 46.3659 45.1734 46.9659 44.7067C47.7259 44.1334 48.1392 43.4134 48.1392 42.6534C48.1392 41.8934 47.7259 41.1734 46.9792 40.6134C46.3926 40.16 45.6592 39.84 44.7926 39.64C44.2592 39.52 43.9126 38.9867 44.0326 38.44C44.1526 37.9067 44.6859 37.56 45.2326 37.68C46.3792 37.9334 47.3792 38.3867 48.1926 39.0134C49.4326 39.9467 50.1392 41.2667 50.1392 42.6534C50.1392 44.04 49.4192 45.36 48.1792 46.3067C47.3526 46.9467 46.3126 47.4134 45.1659 47.64C45.0859 47.6667 45.0192 47.6667 44.9526 47.6667Z" fill="#4F58B8"/>
<circle cx="36.5" cy="36" r="35.5" fill="white" fill-opacity="0.02" stroke="#6D80E6"/>
</svg>
