<svg width="73" height="72" viewBox="0 0 73 72" fill="none" xmlns="http://www.w3.org/2000/svg">
<path d="M41.3666 48.5469C40.7932 48.5469 40.2199 48.4269 39.7532 48.2002L32.7532 44.6935C32.3532 44.4935 31.5666 44.5069 31.1799 44.7335L28.0332 46.5335C26.6732 47.3069 25.2732 47.4135 24.2199 46.7869C23.1532 46.1735 22.5532 44.9202 22.5532 43.3469V30.3869C22.5532 29.1735 23.3532 27.8002 24.4066 27.2002L30.1799 23.8935C31.1532 23.3335 32.6332 23.2935 33.6332 23.8002L40.6332 27.3069C41.0332 27.5069 41.8066 27.4802 42.2066 27.2669L45.3399 25.4802C46.6999 24.7069 48.0999 24.6002 49.1532 25.2269C50.2199 25.8402 50.8199 27.0935 50.8199 28.6669V41.6402C50.8199 42.8535 50.0199 44.2269 48.9666 44.8269L43.1932 48.1335C42.6866 48.4002 42.0199 48.5469 41.3666 48.5469ZM32.0199 42.5602C32.5932 42.5602 33.1666 42.6802 33.6332 42.9069L40.6332 46.4135C41.0332 46.6135 41.8066 46.5869 42.2066 46.3735L47.9799 43.0669C48.4066 42.8269 48.8199 42.1069 48.8199 41.6269V28.6535C48.8199 27.8135 48.5799 27.1869 48.1399 26.9469C47.7132 26.7069 47.0466 26.8002 46.3266 27.2135L43.1932 29.0002C42.2199 29.5602 40.7399 29.6002 39.7399 29.0935L32.7399 25.5869C32.3399 25.3869 31.5666 25.4135 31.1666 25.6269L25.3932 28.9335C24.9666 29.1735 24.5532 29.8935 24.5532 30.3869V43.3602C24.5532 44.2002 24.7932 44.8269 25.2199 45.0669C25.6466 45.3202 26.3132 45.2135 27.0466 44.8002L30.1799 43.0135C30.6999 42.7069 31.3666 42.5602 32.0199 42.5602Z" fill="#FF5555"/>
<path d="M31.9136 43.6663C31.3669 43.6663 30.9136 43.213 30.9136 42.6663V25.333C30.9136 24.7863 31.3669 24.333 31.9136 24.333C32.4602 24.333 32.9136 24.7863 32.9136 25.333V42.6663C32.9136 43.213 32.4602 43.6663 31.9136 43.6663Z" fill="#FF5555"/>
<path d="M41.4731 47.6671C40.9265 47.6671 40.4731 47.2138 40.4731 46.6671V28.8271C40.4731 28.2805 40.9265 27.8271 41.4731 27.8271C42.0198 27.8271 42.4731 28.2805 42.4731 28.8271V46.6671C42.4731 47.2138 42.0198 47.6671 41.4731 47.6671Z" fill="#FF5555"/>
<circle cx="36.5" cy="36" r="35.5" fill="white" fill-opacity="0.02" stroke="#FF5555"/>
</svg>
