<svg width="48" height="48" viewBox="0 0 48 48" fill="none" xmlns="http://www.w3.org/2000/svg">
<path d="M10.0017 43.7398C8.52172 43.7398 7.06172 43.1798 5.94172 42.0598C4.86172 40.9798 4.26172 39.5398 4.26172 37.9998C4.26172 36.4598 4.86172 35.0198 5.94172 33.9398L31.9417 7.93977C34.1817 5.69977 37.8217 5.69977 40.0617 7.93977C41.1417 9.01977 41.7417 10.4598 41.7417 11.9998C41.7417 13.5398 41.1417 14.9798 40.0617 16.0598L14.0617 42.0598C12.9417 43.1798 11.4817 43.7398 10.0017 43.7398ZM36.0017 9.25977C35.3017 9.25977 34.6017 9.51977 34.0617 10.0598L8.06172 36.0598C7.54172 36.5798 7.26172 37.2598 7.26172 37.9998C7.26172 38.7398 7.54172 39.4198 8.06172 39.9398C9.12172 40.9998 10.8817 40.9998 11.9417 39.9398L37.9417 13.9398C38.4617 13.4198 38.7417 12.7398 38.7417 11.9998C38.7417 11.2598 38.4617 10.5798 37.9417 10.0598C37.4017 9.51977 36.7017 9.25977 36.0017 9.25977Z" fill="#00255C"/>
<path d="M36.0184 19.4804C35.6384 19.4804 35.2584 19.3404 34.9584 19.0404L28.9584 13.0404C28.3784 12.4604 28.3784 11.5004 28.9584 10.9204C29.5384 10.3404 30.4984 10.3404 31.0784 10.9204L37.0784 16.9204C37.6584 17.5004 37.6584 18.4604 37.0784 19.0404C36.7784 19.3404 36.3984 19.4804 36.0184 19.4804Z" fill="#00255C"/>
<path d="M19.9982 11.0001C19.8982 11.0001 19.8182 10.9801 19.7182 10.9601L16.9982 10.1601L14.2781 10.9601C13.9181 11.0601 13.5381 10.9601 13.2981 10.7001C13.0381 10.4401 12.9381 10.0801 13.0381 9.7201L13.8381 7.0001L13.0381 4.2801C12.9381 3.9201 13.0381 3.5401 13.2981 3.3001C13.5581 3.0401 13.9381 2.9401 14.2781 3.0401L16.9982 3.8401L19.7182 3.0401C20.0782 2.9401 20.4382 3.0401 20.6982 3.3001C20.9582 3.5601 21.0582 3.9401 20.9581 4.2801L20.1582 7.0001L20.9581 9.7201C21.0582 10.0801 20.9582 10.4601 20.6982 10.7001C20.5182 10.9001 20.2582 11.0001 19.9982 11.0001ZM16.9982 8.1201C17.0982 8.1201 17.1782 8.1401 17.2782 8.1601L18.5182 8.5201L18.1582 7.2801C18.0982 7.1001 18.0982 6.9001 18.1582 6.7201L18.5182 5.4801L17.2782 5.8401C17.0982 5.9001 16.8981 5.9001 16.7181 5.8401L15.4781 5.4801L15.8382 6.7201C15.8982 6.9001 15.8982 7.1001 15.8382 7.2801L15.4781 8.5201L16.7181 8.1601C16.8181 8.1401 16.8982 8.1201 16.9982 8.1201Z" fill="#00255C"/>
<path d="M11.9982 23.0001C11.8982 23.0001 11.8182 22.9801 11.7182 22.9601L8.99815 22.1601L6.27815 22.9601C5.91815 23.0601 5.55815 22.9601 5.29815 22.7001C5.03815 22.4401 4.93815 22.0601 5.03815 21.7201L5.83815 19.0001L5.03815 16.2801C4.93815 15.9201 5.03815 15.5401 5.29815 15.3001C5.55815 15.0601 5.93815 14.9401 6.27815 15.0401L8.99815 15.8401L11.7182 15.0401C12.0582 14.9401 12.4382 15.0401 12.6982 15.3001C12.9582 15.5601 13.0582 15.9401 12.9582 16.2801L12.1582 19.0001L12.9582 21.7201C13.0582 22.0801 12.9582 22.4601 12.6982 22.7001C12.5182 22.9001 12.2582 23.0001 11.9982 23.0001ZM8.99815 20.1201C9.09815 20.1201 9.17815 20.1401 9.27815 20.1601L10.5182 20.5201L10.1582 19.2801C10.0982 19.1001 10.0982 18.9001 10.1582 18.7201L10.5182 17.4801L9.27815 17.8401C9.09815 17.9001 8.89815 17.9001 8.71815 17.8401L7.47815 17.4801L7.83815 18.7201C7.89815 18.9001 7.89815 19.1001 7.83815 19.2801L7.47815 20.5201L8.71815 20.1601C8.81815 20.1401 8.89815 20.1201 8.99815 20.1201Z" fill="#00255C"/>
<path d="M41.9982 33.0001C41.8982 33.0001 41.8182 32.9801 41.7182 32.9601L38.9982 32.1601L36.2781 32.9601C35.9181 33.0601 35.5581 32.9601 35.2981 32.7001C35.0381 32.4401 34.9381 32.0601 35.0381 31.7201L35.8381 29.0001L35.0381 26.2801C34.9381 25.9201 35.0381 25.5401 35.2981 25.3001C35.5581 25.0601 35.9381 24.9401 36.2781 25.0401L38.9982 25.8401L41.7182 25.0401C42.0582 24.9401 42.4382 25.0401 42.6982 25.3001C42.9582 25.5601 43.0582 25.9401 42.9581 26.2801L42.1582 29.0001L42.9581 31.7201C43.0582 32.0801 42.9582 32.4601 42.6982 32.7001C42.5182 32.9001 42.2582 33.0001 41.9982 33.0001ZM38.9982 30.1201C39.0982 30.1201 39.1781 30.1401 39.2781 30.1601L40.5182 30.5201L40.1582 29.2801C40.0981 29.1001 40.0981 28.9001 40.1582 28.7201L40.5182 27.4801L39.2781 27.8401C39.0981 27.9001 38.8982 27.9001 38.7182 27.8401L37.4781 27.4801L37.8382 28.7201C37.8981 28.9001 37.8981 29.1001 37.8382 29.2801L37.4781 30.5201L38.7182 30.1601C38.8182 30.1401 38.8981 30.1201 38.9982 30.1201Z" fill="#00255C"/>
</svg>
