<svg width="48" height="48" viewBox="0 0 48 48" fill="none" xmlns="http://www.w3.org/2000/svg">
<path d="M32.7618 45.5005H6.4818C4.5818 45.5005 2.82182 44.6206 1.68182 43.0806C0.521817 41.5206 0.181834 39.5604 0.761834 37.7004L9.18182 10.6404C9.94182 8.12038 12.2618 6.40039 14.9018 6.40039H39.5018C41.9218 6.40039 44.1018 7.84057 45.0218 10.0806C45.5218 11.2406 45.6218 12.5606 45.3218 13.8606L38.5818 40.9204C37.9418 43.6204 35.5418 45.5005 32.7618 45.5005ZM14.9218 9.42041C13.6218 9.42041 12.4418 10.2805 12.0618 11.5405L3.64184 38.6006C3.36184 39.5406 3.52182 40.5206 4.12182 41.3206C4.68182 42.0806 5.56182 42.5205 6.50182 42.5205H32.7819C34.1619 42.5205 35.3618 41.5805 35.6818 40.2405L42.4218 13.1604C42.5818 12.5004 42.5419 11.8405 42.2819 11.2605C41.8019 10.1205 40.7418 9.40039 39.5218 9.40039H14.9218V9.42041Z" fill="#00255C"/>
<path d="M41.56 45.4999H32C31.18 45.4999 30.5 44.8199 30.5 43.9999C30.5 43.1799 31.18 42.4999 32 42.4999H41.56C42.38 42.4999 43.14 42.16 43.7 41.56C44.26 40.96 44.54 40.16 44.48 39.34L42.5 12.1C42.44 11.28 43.06 10.5599 43.88 10.4999C44.7 10.4599 45.42 11.0598 45.48 11.8798L47.46 39.1201C47.58 40.7601 47 42.4 45.88 43.6C44.78 44.82 43.2 45.4999 41.56 45.4999Z" fill="#00255C"/>
<path d="M19.3595 14.2594C19.2395 14.2594 19.1195 14.2394 18.9995 14.2194C18.1995 14.0194 17.6996 13.2193 17.8996 12.3993L19.9795 3.75943C20.1795 2.95943 20.9795 2.45933 21.7995 2.65933C22.5995 2.85933 23.0996 3.6594 22.8996 4.4794L20.8196 13.1195C20.6596 13.7995 20.0395 14.2594 19.3595 14.2594Z" fill="#00255C"/>
<path d="M32.7589 14.2795C32.6589 14.2795 32.5389 14.2794 32.4389 14.2394C31.6389 14.0594 31.1189 13.2594 31.2789 12.4594L33.1589 3.77949C33.3389 2.95949 34.1389 2.45957 34.9389 2.61957C35.7389 2.77957 36.2589 3.59936 36.0989 4.39936L34.2189 13.0795C34.0789 13.7995 33.4589 14.2795 32.7589 14.2795Z" fill="#00255C"/>
<path d="M31.3984 25.5H15.3984C14.5784 25.5 13.8984 24.82 13.8984 24C13.8984 23.18 14.5784 22.5 15.3984 22.5H31.3984C32.2184 22.5 32.8984 23.18 32.8984 24C32.8984 24.82 32.2184 25.5 31.3984 25.5Z" fill="#00255C"/>
<path d="M29.3984 33.5H13.3984C12.5784 33.5 11.8984 32.82 11.8984 32C11.8984 31.18 12.5784 30.5 13.3984 30.5H29.3984C30.2184 30.5 30.8984 31.18 30.8984 32C30.8984 32.82 30.2184 33.5 29.3984 33.5Z" fill="#00255C"/>
</svg>
