<svg width="16" height="16" viewBox="0 0 16 16" fill="none" xmlns="http://www.w3.org/2000/svg">
<g clip-path="url(#clip0_1594_62702)">
<path d="M8 16C12.4183 16 16 12.4183 16 8C16 3.58172 12.4183 0 8 0C3.58172 0 0 3.58172 0 8C0 12.4183 3.58172 16 8 16Z" fill="#F0F0F0"/>
<path d="M-0.000488281 7.99993C-0.000488281 11.4397 2.17051 14.372 5.21692 15.5024V0.497559C2.17051 1.62787 -0.000488281 4.56025 -0.000488281 7.99993Z" fill="#6DA544"/>
<path d="M15.9996 7.99993C15.9996 4.56025 13.8286 1.62787 10.7822 0.497559V15.5024C13.8286 14.372 15.9996 11.4397 15.9996 7.99993Z" fill="#6DA544"/>
</g>
<defs>
<clipPath id="clip0_1594_62702">
<rect width="16" height="16" fill="white"/>
</clipPath>
</defs>
</svg>
