<svg width="48" height="48" viewBox="0 0 48 48" fill="none" xmlns="http://www.w3.org/2000/svg">
<rect width="48" height="48" rx="10" fill="white"/>
<path d="M24 22.5204C23.59 22.5204 23.25 22.1804 23.25 21.7704V18.4404C23.25 18.0304 23.59 17.6904 24 17.6904C24.41 17.6904 24.75 18.0304 24.75 18.4404V21.7704C24.75 22.1904 24.41 22.5204 24 22.5204Z" fill="#1070FF"/>
<path d="M24.0199 32.3502C21.4399 32.3502 18.8699 31.9402 16.4199 31.1202C15.5099 30.8202 14.8199 30.1702 14.5199 29.3502C14.2199 28.5302 14.3199 27.5902 14.8099 26.7702L16.0799 24.6502C16.3599 24.1802 16.6099 23.3002 16.6099 22.7502V20.6502C16.6099 16.5602 19.9299 13.2402 24.0199 13.2402C28.1099 13.2402 31.4299 16.5602 31.4299 20.6502V22.7502C31.4299 23.2902 31.6799 24.1802 31.9599 24.6502L33.2299 26.7702C33.6999 27.5502 33.7799 28.4802 33.4699 29.3302C33.1599 30.1802 32.4799 30.8302 31.6199 31.1202C29.1699 31.9502 26.5999 32.3502 24.0199 32.3502ZM24.0199 14.7502C20.7599 14.7502 18.1099 17.4002 18.1099 20.6602V22.7602C18.1099 23.5702 17.7899 24.7402 17.3699 25.4302L16.0999 27.5602C15.8399 27.9902 15.7799 28.4502 15.9299 28.8502C16.0799 29.2502 16.4199 29.5502 16.8999 29.7102C21.4999 31.2402 26.5599 31.2402 31.1599 29.7102C31.5899 29.5702 31.9199 29.2502 32.0699 28.8302C32.2299 28.4102 32.1799 27.9502 31.9499 27.5602L30.6799 25.4402C30.2599 24.7502 29.9399 23.5802 29.9399 22.7702V20.6702C29.9299 17.4002 27.2799 14.7502 24.0199 14.7502Z" fill="#1070FF"/>
<path d="M23.9999 34.9003C22.9299 34.9003 21.8799 34.4603 21.1199 33.7003C20.3599 32.9403 19.9199 31.8903 19.9199 30.8203H21.4199C21.4199 31.5003 21.6999 32.1603 22.1799 32.6403C22.6599 33.1203 23.3199 33.4003 23.9999 33.4003C25.4199 33.4003 26.5799 32.2403 26.5799 30.8203H28.0799C28.0799 33.0703 26.2499 34.9003 23.9999 34.9003Z" fill="#1070FF"/>
</svg>
