<svg width="16" height="16" viewBox="0 0 16 16" fill="none" xmlns="http://www.w3.org/2000/svg">
<path d="M7.3987 15.1663H4.5987C1.99203 15.1663 0.832031 14.0063 0.832031 11.3997V8.59967C0.832031 5.99301 1.99203 4.83301 4.5987 4.83301H7.3987C10.0054 4.83301 11.1654 5.99301 11.1654 8.59967V11.3997C11.1654 14.0063 10.0054 15.1663 7.3987 15.1663ZM4.5987 5.83301C2.53203 5.83301 1.83203 6.53301 1.83203 8.59967V11.3997C1.83203 13.4663 2.53203 14.1663 4.5987 14.1663H7.3987C9.46537 14.1663 10.1654 13.4663 10.1654 11.3997V8.59967C10.1654 6.53301 9.46537 5.83301 7.3987 5.83301H4.5987Z" fill="#0056D6"/>
<path d="M11.3987 11.1663H10.6654C10.392 11.1663 10.1654 10.9397 10.1654 10.6663V8.59967C10.1654 6.53301 9.46536 5.83301 7.3987 5.83301H5.33203C5.0587 5.83301 4.83203 5.60634 4.83203 5.33301V4.59967C4.83203 1.99301 5.99203 0.833008 8.5987 0.833008H11.3987C14.0054 0.833008 15.1654 1.99301 15.1654 4.59967V7.39967C15.1654 10.0063 14.0054 11.1663 11.3987 11.1663ZM11.1654 10.1663H11.3987C13.4654 10.1663 14.1654 9.46634 14.1654 7.39967V4.59967C14.1654 2.53301 13.4654 1.83301 11.3987 1.83301H8.5987C6.53203 1.83301 5.83203 2.53301 5.83203 4.59967V4.83301H7.3987C10.0054 4.83301 11.1654 5.99301 11.1654 8.59967V10.1663Z" fill="#0056D6"/>
</svg>
