<svg width="174" height="24" viewBox="0 0 174 24" fill="none" xmlns="http://www.w3.org/2000/svg">
<g clip-path="url(#clip0_2560_92725)">
<path d="M121.849 19V5.71724H116V4H130V5.71724H124.047V19H121.849Z" fill="#151517"/>
<path d="M138.064 16.6544C138.05 16.7636 138.064 16.8768 138.103 16.982C138.143 17.0871 138.21 17.1801 138.298 17.261C138.387 17.3379 138.493 17.3985 138.613 17.4349C138.733 17.4713 138.857 17.4835 138.981 17.4713C139.335 17.4673 139.69 17.3824 140 17.2287V18.3044C139.77 18.5188 139.486 18.6846 139.176 18.7937C138.866 18.9029 138.529 18.9474 138.196 18.9272C136.987 18.9272 136.127 18.1143 135.99 16.8728C135.343 18.0901 133.677 19 131.767 19C129.48 19 128 17.9 128 16.1085C128 14.1268 129.91 13.314 132.733 12.8125L135.905 12.2382V11.8298C135.905 10.3982 134.966 9.5125 133.322 9.5125C131.625 9.5125 130.712 10.3941 130.366 11.6154L128.377 11.393C128.833 9.43566 130.583 8 133.353 8C136.313 8 138.059 9.3386 138.059 11.9875V16.6544H138.064ZM135.91 13.5526L133.273 14.054C131.417 14.414 130.233 14.7213 130.233 15.9871C130.233 16.8687 130.907 17.5401 132.254 17.5401C134.323 17.5401 135.91 16.1529 135.91 14.054V13.5526Z" fill="#151517"/>
<path d="M142 4V19H140V4H142Z" fill="#151517"/>
<path d="M154.956 15.2052C154.395 17.5679 152.531 19 149.744 19C146.426 19 144 16.9003 144 13.6558C144 10.3667 146.426 8 149.639 8C153.188 8 155 10.3626 155 13.2026V13.9835H146.112C146.212 16.0103 147.771 17.4424 149.761 17.4424C151.625 17.4424 152.722 16.609 153.184 15.011L154.956 15.2052ZM152.836 12.705C152.757 11.0342 151.764 9.50901 149.644 9.50901C147.627 9.50901 146.43 10.9857 146.173 12.705H152.836Z" fill="#151517"/>
<path d="M158.14 18.996H156V8.29128H158.14V10.2049C158.681 8.90622 160.203 8 161.878 8C164.815 8 166 9.86098 166 12.3612V19H163.86V12.527C163.86 10.7389 162.961 9.6142 161.179 9.6142C159.478 9.6142 158.136 10.8886 158.136 12.8507V18.996H158.14Z" fill="#151517"/>
<path d="M168.626 10.128H167V9.10001L167.69 8.98844C168.699 8.80515 168.924 8.34692 169.169 7.39062L169.489 6H170.644V8.75733H173.681V10.128H170.644V16.1726C170.644 17.0612 171.037 17.4716 171.977 17.4716C172.693 17.4318 173.388 17.2286 174 16.8779V18.153C173.215 18.7268 172.236 19.0296 171.235 18.9977C169.709 18.9977 168.622 18.3363 168.622 16.3958V10.128H168.626Z" fill="#151517"/>
<path d="M14.2465 10.2355C15.2486 10.4217 15.9594 10.8395 16.379 11.4891C16.7987 12.1386 17.0042 13.1605 16.9999 14.5547C16.9999 17.3225 16.1521 19.5856 14.4564 21.3439C12.7607 23.1022 10.5939 23.9876 7.95614 24C6.91987 24 5.89645 23.8138 4.9287 23.4498C3.99092 23.1064 3.1345 22.5809 2.40226 21.9107C1.66145 21.2612 1.04911 20.4834 0.599494 19.6104C0.205541 18.8409 0 17.9928 0 17.1322C0 16.1889 0.205541 15.4566 0.620904 14.9436C1.13047 14.3768 1.82417 14.0003 2.58211 13.8886C2.4408 13.5701 2.31662 13.2474 2.20956 12.9164C2.13677 12.7054 2.09823 12.5027 2.08966 12.2958C2.08966 11.7993 2.35515 11.2946 2.88613 10.7775C3.40855 10.2603 3.90956 10.0038 4.38059 10.0038C4.59897 10.0079 4.81308 10.041 5.01862 10.1114C5.28839 10.2024 5.54532 10.3224 5.7894 10.4672C4.9287 8.07585 4.30351 6.22651 3.90956 4.92329C3.51989 3.62007 3.31006 2.72229 3.31006 2.22996C3.31006 1.54732 3.42568 1.03017 3.77681 0.620583C4.20502 0.119979 4.84305 0 5.45968 0C6.70577 0 7.14682 1.04672 9.29644 6.92157C9.59618 7.71177 9.78888 8.31994 9.93875 8.75022C10.0629 8.41096 10.2385 7.92691 10.4569 7.30219C12.067 2.73056 12.7521 0.44682 14.6148 0.44682C14.8717 0.434408 15.1287 0.479917 15.3642 0.57921C15.5997 0.678504 15.8138 0.827444 15.9808 1.01362C16.3405 1.43975 16.5203 1.98586 16.4904 2.53611C16.4904 3.02017 16.302 3.9014 15.9294 5.19221C15.5569 6.48716 15.0045 8.15446 14.2465 10.2355ZM2.22241 16.9543C2.37656 17.1446 2.59495 17.4177 2.87329 17.7776C3.61409 18.7788 4.29495 19.2794 4.92013 19.2753C5.12995 19.2794 5.33121 19.2091 5.48965 19.0767C5.56245 19.0312 5.6224 18.9733 5.66522 18.8988C5.70804 18.8285 5.73373 18.7457 5.7423 18.663C5.69519 18.3692 5.57958 18.0879 5.40401 17.8397C5.12995 17.3846 4.82164 16.946 4.48336 16.5365C4.14935 16.0979 3.78109 15.6842 3.37858 15.3077C3.19016 15.105 2.9418 14.9685 2.66775 14.9229C2.44936 14.9354 2.23954 14.9974 2.05113 15.105C1.86271 15.2125 1.70428 15.3615 1.58438 15.5394C1.25466 15.9531 1.07909 16.4703 1.08765 16.9957C1.1005 17.517 1.2204 18.03 1.4345 18.5058C1.68715 19.1057 2.02543 19.6683 2.43223 20.1772C3.07455 21.0295 3.91812 21.7204 4.89016 22.1796C5.90501 22.6554 7.01408 22.8954 8.13599 22.8788C9.17226 22.8995 10.2042 22.6926 11.1506 22.2789C12.0969 21.8652 12.9448 21.2529 13.6214 20.4792C15.0944 18.8781 15.8309 16.8757 15.8266 14.472C15.8438 13.8762 15.7881 13.2846 15.6596 12.7013C15.5826 12.333 15.3813 12.0062 15.0901 11.7621C14.6319 11.3856 13.7413 11.0505 12.4138 10.7568C11.0521 10.4547 9.65613 10.3058 8.26017 10.3099C7.96042 10.2851 7.66068 10.3513 7.40803 10.5085C7.31811 10.5954 7.24531 10.6988 7.20249 10.8188C7.15967 10.9347 7.14254 11.0629 7.15539 11.187C7.15539 11.9359 7.57932 12.4778 8.43145 12.8088C9.27931 13.1439 10.6581 13.3094 12.5594 13.3094H13.2488C13.3216 13.3094 13.3944 13.3218 13.4586 13.3508C13.5229 13.3798 13.5828 13.4253 13.6256 13.4832C13.7327 13.6363 13.8012 13.8142 13.8183 14.0045C13.4629 14.2651 13.0647 14.4637 12.645 14.5961C12.1654 14.7657 11.7115 14.9891 11.2876 15.2663C10.6367 15.7297 10.0843 16.313 9.66898 16.9874C9.29644 17.5501 9.0909 18.2038 9.06949 18.874C9.08233 19.3208 9.17226 19.7635 9.32641 20.1855C9.44631 20.4916 9.53623 20.8102 9.58762 21.1329V21.2488L9.55336 21.3977C9.30072 21.3729 9.05664 21.2818 8.8511 21.1329C8.64556 20.984 8.48712 20.7812 8.38863 20.5496C8.07604 19.8835 7.92617 19.1512 7.96042 18.4148V18.2658C7.88334 18.3361 7.7977 18.3899 7.7035 18.4313C7.61357 18.4644 7.52365 18.481 7.42516 18.481C7.32239 18.481 7.2239 18.4727 7.12541 18.4561C7.03549 18.4396 6.93272 18.4148 6.82567 18.3817C6.85992 18.4975 6.88562 18.6175 6.90274 18.7375C6.91987 18.8285 6.92844 18.9195 6.92844 19.0105C6.92844 19.2091 6.88562 19.4036 6.80426 19.5856C6.71861 19.7676 6.59872 19.9248 6.44456 20.0572C6.13197 20.3427 5.7166 20.4999 5.28839 20.4958C4.58185 20.4958 3.86674 20.1565 3.13878 19.4822C2.41082 18.8078 2.04684 18.1458 2.04684 17.4963C2.04684 17.3887 2.05969 17.2812 2.08966 17.1736C2.11964 17.0908 2.17102 17.0122 2.23526 16.9502H2.22241V16.9543ZM7.25388 17.3515C7.35236 17.3474 7.45085 17.3267 7.54078 17.2812C7.6307 17.2356 7.70778 17.1736 7.77201 17.0991C7.92188 16.9502 8.00753 16.7557 8.00753 16.5489C7.92188 16.0441 7.76345 15.5559 7.54506 15.0926C7.23247 14.3106 6.85136 13.5577 6.4103 12.8419C6.14481 12.3786 5.81081 11.9607 5.41686 11.5966C5.16849 11.3525 4.83877 11.2077 4.49192 11.1912C4.33777 11.2077 4.18789 11.2532 4.05515 11.3277C3.91812 11.4022 3.8025 11.4973 3.70402 11.6173C3.46422 11.8283 3.31434 12.1179 3.28437 12.4323C3.33576 12.8502 3.48135 13.2556 3.70402 13.6114C4.02517 14.2031 4.402 14.7657 4.83021 15.2953C5.23701 15.8497 5.70376 16.3544 6.22189 16.8095C6.65866 17.1777 7.01408 17.3598 7.26244 17.3598H7.25388V17.3515ZM8.8982 9.37907L7.09544 4.23651C6.80854 3.35115 6.44456 2.49474 6.0035 1.67557C5.74658 1.2784 5.46396 1.08395 5.16421 1.08395C5.05288 1.07981 4.94582 1.10464 4.84734 1.15015C4.74885 1.19566 4.66321 1.26185 4.59469 1.34873C4.44054 1.55146 4.36346 1.80383 4.37631 2.0562C4.37631 2.56094 4.57756 3.43803 4.9758 4.69161C5.37832 5.94518 5.96496 7.58766 6.73574 9.61903C6.79997 9.49905 6.90703 9.40803 7.03549 9.36666C7.19821 9.30874 7.36521 9.28392 7.53649 9.29219L7.93901 9.30874C8.11458 9.32529 8.44858 9.35011 8.90248 9.39562L8.8982 9.37907ZM10.7952 14.3768C10.337 14.3561 9.8788 14.3065 9.42918 14.2279C9.00954 14.1534 8.59846 14.0459 8.19594 13.9011C8.3715 14.2527 8.53422 14.6044 8.67553 14.956C8.81256 15.2953 8.92818 15.6428 9.02238 15.9945C9.28359 15.6801 9.56193 15.3822 9.86596 15.1091C10.1571 14.8443 10.474 14.6044 10.808 14.3934L10.7952 14.3768ZM13.0261 9.94587C13.7755 7.9476 14.3579 6.29685 14.7775 4.99362C15.1972 3.6904 15.407 2.89605 15.407 2.59817C15.4241 2.33339 15.3513 2.07275 15.2015 1.85761C15.1329 1.77073 15.043 1.70453 14.9445 1.65902C14.8418 1.61352 14.7347 1.59283 14.6234 1.59697C14.3236 1.59697 13.9939 1.84934 13.6685 2.36235C13.2231 3.14429 12.8634 3.97173 12.5937 4.82813L10.9236 9.59421L13.0261 9.94587Z" fill="#151517"/>
<path d="M32.6844 4L39 19H35.7325L34.1831 15.2924H27.5974L26.0987 19H23L29.2691 4H32.6844ZM28.5177 13.0166H33.2248L30.9113 7.39724H30.8142L28.5177 13.0166Z" fill="#151517"/>
<path d="M43.1037 18.9838H40V8.29128H43.1037V10.0349C43.6696 8.82126 45.1235 8 46.8255 8C49.8856 8 51 9.94189 51 12.3207V19H47.9137V12.8992C47.9137 11.2486 47.2129 10.306 45.685 10.306C44.1049 10.306 43.1211 11.4671 43.1211 13.2674L43.1037 18.9838Z" fill="#151517"/>
<path d="M56.7485 15.9453C55.9422 15.9622 55.1441 15.8276 54.3876 15.5502C54.2546 15.6301 54.1424 15.7478 54.0634 15.8823C53.9886 16.021 53.947 16.1766 53.947 16.3321C53.947 16.824 54.2629 17.1435 55.0651 17.1435H59.3505C61.7364 17.1435 62.9543 18.4425 62.9543 20.1829C62.9543 22.8818 59.8369 24 56.5033 24C53.5313 24 51 23.2391 51 21.2338C51 20.1282 51.8729 19.3463 53.1406 19.1781C52.7125 19.0562 52.3343 18.7956 52.0682 18.4383C51.8022 18.0809 51.6567 17.6437 51.6567 17.1939C51.6567 16.2144 52.3384 15.4787 53.3859 15.0583C52.9245 14.7599 52.5504 14.3479 52.2885 13.8644C52.0267 13.381 51.8937 12.8387 51.8978 12.288C51.8978 9.98424 53.9179 8.58434 56.7444 8.58434C57.9498 8.55491 59.1385 8.88702 60.1528 9.54283C60.477 9.0804 60.9009 8.70205 61.3956 8.433C61.8902 8.16395 62.4389 8.01682 63 8V10.35C62.3724 10.35 61.7489 10.4467 61.1503 10.6442C61.4538 11.1361 61.6159 11.7036 61.6117 12.2838C61.6034 14.5497 59.5584 15.9453 56.7485 15.9453ZM56.5033 22.2218C58.6439 22.2218 60.2026 21.7299 60.2026 20.6789C60.2026 19.9643 59.6207 19.6952 58.6439 19.6952H55.0526C54.2754 19.6952 53.6436 20.0147 53.6436 20.8008C53.6436 21.7803 54.7617 22.226 56.4908 22.226H56.5033V22.2218ZM56.7735 10.3794C55.6761 10.3794 54.9238 11.0436 54.9238 12.2922C54.9238 13.5407 55.6803 14.2049 56.7735 14.2049C57.8708 14.2049 58.6481 13.5407 58.6481 12.2922C58.6481 11.0436 57.8833 10.3794 56.761 10.3794H56.7735Z" fill="#151517"/>
<path d="M74.9269 15.3225C74.362 17.6366 72.5009 19 69.7337 19C66.4016 19 64 16.9448 64 13.6598C64 10.3748 66.4259 8 69.6605 8C73.1795 8 75 10.3667 75 13.1986V14.214H66.9054C66.942 14.9342 67.2671 15.6138 67.8157 16.1033C68.3642 16.5929 69.0916 16.8558 69.8393 16.8356C71.2859 16.8356 72.1433 16.2449 72.5578 15.0636L74.9269 15.3225ZM72.1352 12.4623C72.0377 11.2567 71.2778 10.0997 69.6361 10.0997C67.9945 10.0997 67.2102 11.1637 66.942 12.4623H72.1352Z" fill="#151517"/>
<path d="M79 4V19H76V4H79Z" fill="#151517"/>
<path d="M83.7607 4V16.5297H89V19H81V4H83.7607Z" fill="#151517"/>
<path d="M90 4H93V6.78483H90V4ZM92.9751 8.50207V19H90.054V8.51448L92.9751 8.50207Z" fill="#151517"/>
<path d="M97.58 15.1593C97.7548 16.4099 98.7484 17.0533 100.258 17.0533C101.354 17.0533 102.245 16.6972 102.245 15.9404C102.245 15.2322 101.746 14.9246 100.655 14.7586L98.9147 14.4753C96.5778 14.1192 95.2857 13.2896 95.2857 11.3591C95.2857 9.37601 97.0512 8 99.8316 8C102.864 8 104.68 9.30316 104.889 11.6221L102.429 11.7152C102.228 10.5335 101.384 9.9426 99.8188 9.9426C98.7484 9.9426 98.0533 10.3918 98.0533 11.1001C98.0533 11.6667 98.4542 12.0026 99.2431 12.1159L101.324 12.4478C103.635 12.8039 105 13.7266 105 15.6895C105 17.8182 103.064 19 100.241 19C97.4179 19 95.1962 17.8142 95 15.2605L97.58 15.1593Z" fill="#151517"/>
<path d="M106.627 10.6573H105V9.05176L105.776 8.93622C106.884 8.78085 107.194 8.28284 107.451 7.35457L107.814 6H109.698V8.75694H112.787V10.6533H109.698V15.5816C109.698 16.4381 110.137 16.8246 111.068 16.8246C111.741 16.7887 112.402 16.6254 113 16.3505V18.1353C112.096 18.7329 110.983 19.0397 109.853 18.9959C108.098 18.9959 106.627 18.3146 106.627 16.1911V10.6573Z" fill="#151517"/>
</g>
<defs>
<clipPath id="clip0_2560_92725">
<rect width="174" height="24" fill="white"/>
</clipPath>
</defs>
</svg>
