<svg width="301" height="43" viewBox="0 0 301 43" fill="none" xmlns="http://www.w3.org/2000/svg">
<g clip-path="url(#clip0_2560_92423)">
<path d="M210.527 34.5V11.4766H200.5V8.5H224.5V11.4766H214.296V34.5H210.527Z" fill="#1E1E1E"/>
<path d="M238.273 30.2353C238.25 30.4338 238.273 30.6397 238.339 30.8309C238.405 31.0221 238.516 31.1912 238.664 31.3382C238.812 31.4779 238.989 31.5882 239.188 31.6544C239.388 31.7206 239.595 31.7426 239.801 31.7206C240.392 31.7132 240.983 31.5588 241.5 31.2794V33.2353C241.116 33.625 240.643 33.9265 240.126 34.125C239.609 34.3235 239.048 34.4044 238.494 34.3676C236.478 34.3676 235.045 32.8897 234.816 30.6324C233.738 32.8456 230.961 34.5 227.778 34.5C223.967 34.5 221.5 32.5 221.5 29.2426C221.5 25.6397 224.683 24.1618 229.388 23.25L234.676 22.2059V21.4632C234.676 18.8603 233.11 17.25 230.37 17.25C227.541 17.25 226.02 18.8529 225.444 21.0735L222.128 20.6691C222.888 17.1103 225.806 14.5 230.422 14.5C235.355 14.5 238.265 16.9338 238.265 21.75V30.2353H238.273ZM234.683 24.5956L230.289 25.5074C227.194 26.1618 225.222 26.7206 225.222 29.0221C225.222 30.625 226.345 31.8456 228.59 31.8456C232.039 31.8456 234.683 29.3235 234.683 25.5074V24.5956Z" fill="#1E1E1E"/>
<path d="M246.5 8.5V34.5H242.5V8.5H246.5Z" fill="#1E1E1E"/>
<path d="M267.425 27.6004C266.454 31.8961 263.235 34.5 258.421 34.5C252.69 34.5 248.5 30.6824 248.5 24.7832C248.5 18.8031 252.69 14.5 258.241 14.5C264.371 14.5 267.5 18.7957 267.5 23.9594V25.379H252.148C252.321 29.0642 255.014 31.6681 258.451 31.6681C261.671 31.6681 263.566 30.1528 264.363 27.2473L267.425 27.6004ZM263.762 23.0546C263.626 20.0167 261.911 17.2437 258.248 17.2437C254.766 17.2437 252.697 19.9285 252.253 23.0546H263.762Z" fill="#1E1E1E"/>
<path d="M274.138 34.4926H270.5V15.0296H274.138V18.5088C275.058 16.1477 277.645 14.5 280.493 14.5C285.486 14.5 287.5 17.8836 287.5 22.4294V34.5H283.862V22.731C283.862 19.4798 282.333 17.4349 279.304 17.4349C276.413 17.4349 274.13 19.7519 274.13 23.3194V34.4926H274.138Z" fill="#1E1E1E"/>
<path d="M291.287 18.121H288.5V16.2231L289.683 16.0171C291.413 15.6787 291.798 14.8328 292.219 13.0673L292.766 10.5H294.748V15.5905H299.953V18.121H294.748V29.2803C294.748 30.9207 295.421 31.6784 297.032 31.6784C298.26 31.6048 299.45 31.2296 300.5 30.5823V32.9363C299.154 33.9956 297.476 34.5546 295.761 34.4958C293.143 34.4958 291.28 33.2747 291.28 29.6922V18.121H291.287Z" fill="#1E1E1E"/>
<path d="M24.8029 18.4121C26.5122 18.7379 27.7248 19.4691 28.4407 20.6058C29.1566 21.7425 29.5072 23.5309 29.4999 25.9708C29.4999 30.8144 28.0535 34.7748 25.1609 37.8518C22.2682 40.9289 18.572 42.4783 14.0722 42.5C12.3045 42.5 10.5587 42.1742 8.90778 41.5371C7.30803 40.9361 5.84708 40.0166 4.59797 38.8437C3.33425 37.707 2.28967 36.3459 1.52267 34.8182C0.850628 33.4716 0.5 31.9873 0.5 30.4814C0.5 28.8306 0.850628 27.5491 1.55919 26.6514C2.42846 25.6595 3.61183 25.0006 4.90477 24.8051C4.66371 24.2476 4.45187 23.6829 4.26925 23.1037C4.14507 22.7344 4.07933 22.3797 4.06472 22.0177C4.06472 21.1489 4.51762 20.2656 5.42341 19.3605C6.31459 18.4555 7.16924 18.0066 7.97277 18.0066C8.34531 18.0139 8.71055 18.0718 9.06118 18.1949C9.52138 18.3542 9.95966 18.5641 10.376 18.8175C8.90778 14.6327 7.84128 11.3964 7.16924 9.11576C6.50451 6.83511 6.14658 5.26401 6.14658 4.40243C6.14658 3.20781 6.34381 2.30279 6.9428 1.58602C7.67327 0.709964 8.76168 0.5 9.81357 0.5C11.9393 0.5 12.6916 2.33175 16.3586 12.6127C16.87 13.9956 17.1987 15.0599 17.4543 15.8129C17.6662 15.2192 17.9657 14.3721 18.3382 13.2788C21.0848 5.27849 22.2536 1.28193 25.4311 1.28193C25.8694 1.26021 26.3077 1.33986 26.7095 1.51362C27.1112 1.68738 27.4765 1.94803 27.7614 2.27383C28.375 3.01957 28.6818 3.97526 28.6306 4.9382C28.6306 5.7853 28.3092 7.32744 27.6737 9.58636C27.0382 11.8525 26.0959 14.7703 24.8029 18.4121ZM4.29117 30.1701C4.55414 30.5031 4.92668 30.981 5.40149 31.6108C6.66522 33.363 7.82667 34.239 8.89317 34.2318C9.2511 34.239 9.59442 34.1159 9.8647 33.8842C9.98888 33.8046 10.0911 33.7032 10.1642 33.5729C10.2372 33.4498 10.2811 33.305 10.2957 33.1602C10.2153 32.6462 10.0181 32.1539 9.7186 31.7194C9.2511 30.923 8.72516 30.1556 8.14808 29.4388C7.57831 28.6714 6.9501 27.9473 6.26345 27.2885C5.94204 26.9337 5.51837 26.6948 5.05086 26.6152C4.67832 26.6369 4.32039 26.7455 3.99898 26.9337C3.67757 27.122 3.40729 27.3826 3.20276 27.6939C2.64029 28.4179 2.3408 29.323 2.35541 30.2425C2.37732 31.1547 2.58186 32.0525 2.94709 32.8851C3.37807 33.9349 3.95515 34.9196 4.6491 35.8101C5.74482 37.3016 7.18385 38.5107 8.84203 39.3143C10.5733 40.147 12.4652 40.5669 14.379 40.5379C16.1468 40.5741 17.9072 40.2121 19.5216 39.4881C21.1359 38.7641 22.5823 37.6926 23.7364 36.3386C26.2493 33.5367 27.5057 30.0325 27.4984 25.826C27.5276 24.7834 27.4326 23.7481 27.2135 22.7272C27.082 22.0828 26.7387 21.5109 26.242 21.0837C25.4604 20.4248 23.941 19.8384 21.6765 19.3243C19.3536 18.7958 16.9722 18.5352 14.5909 18.5424C14.0795 18.499 13.5682 18.6148 13.1372 18.8899C12.9838 19.042 12.8596 19.223 12.7866 19.4329C12.7136 19.6357 12.6843 19.8601 12.7062 20.0773C12.7062 21.3878 13.4294 22.3362 14.8831 22.9154C16.3294 23.5019 18.6815 23.7915 21.9249 23.7915H23.1009C23.2251 23.7915 23.3493 23.8132 23.4589 23.8639C23.5684 23.9146 23.6707 23.9942 23.7437 24.0956C23.9264 24.3635 24.0432 24.6748 24.0725 25.0078C23.4662 25.464 22.7868 25.8115 22.0709 26.0432C21.2528 26.34 20.4785 26.731 19.7553 27.2161C18.645 28.027 17.7027 29.0478 16.9941 30.228C16.3586 31.2126 16.008 32.3566 15.9715 33.5295C15.9934 34.3114 16.1468 35.0861 16.4098 35.8246C16.6143 36.3604 16.7677 36.9179 16.8554 37.4826V37.6853L16.7969 37.946C16.3659 37.9025 15.9496 37.7432 15.5989 37.4826C15.2483 37.2219 14.978 36.8672 14.81 36.4617C14.2768 35.2961 14.0211 34.0146 14.0795 32.7258V32.4652C13.9481 32.5883 13.802 32.6824 13.6413 32.7548C13.4879 32.8127 13.3345 32.8417 13.1665 32.8417C12.9911 32.8417 12.8231 32.8272 12.6551 32.7982C12.5017 32.7693 12.3264 32.7258 12.1438 32.6679C12.2022 32.8706 12.246 33.0806 12.2753 33.2906C12.3045 33.4498 12.3191 33.6091 12.3191 33.7684C12.3191 34.1159 12.246 34.4562 12.1073 34.7748C11.9612 35.0933 11.7566 35.3685 11.4937 35.6002C10.9604 36.0997 10.2519 36.3749 9.52138 36.3676C8.31609 36.3676 7.0962 35.7739 5.85439 34.5938C4.61258 33.4136 3.99167 32.2552 3.99167 31.1185C3.99167 30.9303 4.01359 30.742 4.06472 30.5538C4.11585 30.409 4.20351 30.2714 4.31308 30.1628H4.29117V30.1701ZM12.8743 30.8651C13.0423 30.8579 13.2103 30.8217 13.3637 30.742C13.5171 30.6624 13.6486 30.5538 13.7581 30.4235C14.0138 30.1628 14.1599 29.8225 14.1599 29.4605C14.0138 28.5772 13.7435 27.7229 13.371 26.912C12.8377 25.5436 12.1876 24.2259 11.4352 22.9734C10.9823 22.1625 10.4126 21.4312 9.74052 20.7941C9.31684 20.3669 8.75438 20.1135 8.16269 20.0846C7.89972 20.1135 7.64405 20.1932 7.41761 20.3235C7.18385 20.4538 6.98662 20.6203 6.81862 20.8303C6.40955 21.1995 6.15388 21.7063 6.10275 22.2566C6.19041 22.9878 6.43877 23.6974 6.81862 24.32C7.36647 25.3554 8.00929 26.34 8.73977 27.2668C9.43372 28.2369 10.2299 29.1202 11.1138 29.9167C11.8589 30.561 12.4652 30.8796 12.8889 30.8796H12.8743V30.8651ZM15.6793 16.9134L12.604 7.91389C12.1146 6.36451 11.4937 4.8658 10.7413 3.43225C10.303 2.7372 9.82087 2.39691 9.30954 2.39691C9.11961 2.38967 8.937 2.43312 8.76899 2.51276C8.60098 2.5924 8.45488 2.70824 8.338 2.86028C8.07503 3.21505 7.94355 3.6567 7.96546 4.09835C7.96546 4.98164 8.30879 6.51655 8.98813 8.71031C9.67478 10.9041 10.6755 13.7784 11.9904 17.3333C12.1 17.1233 12.2826 16.9641 12.5017 16.8917C12.7793 16.7903 13.0642 16.7469 13.3564 16.7613L14.043 16.7903C14.3425 16.8193 14.9123 16.8627 15.6866 16.9423L15.6793 16.9134ZM18.9153 25.6595C18.1337 25.6233 17.3521 25.5364 16.5851 25.3988C15.8692 25.2685 15.168 25.0802 14.4813 24.8268C14.7808 25.4423 15.0584 26.0577 15.2994 26.6731C15.5332 27.2668 15.7304 27.8749 15.8911 28.4903C16.3367 27.9401 16.8115 27.4188 17.3302 26.941C17.8269 26.4776 18.3674 26.0577 18.9372 25.6884L18.9153 25.6595ZM22.7211 17.9053C23.9994 14.4083 24.9929 11.5195 25.7087 9.23884C26.4246 6.9582 26.7825 5.56809 26.7825 5.0468C26.8117 4.58343 26.6876 4.12731 26.4319 3.75082C26.315 3.59878 26.1616 3.48293 25.9936 3.40329C25.8183 3.32365 25.6357 3.28745 25.4457 3.29469C24.9344 3.29469 24.3719 3.73634 23.8168 4.63412C23.0571 6.0025 22.4435 7.45053 21.9833 8.94923L19.1344 17.2899L22.7211 17.9053Z" fill="#1E1E1E"/>
<path d="M57.4478 8.5L68.5 34.5H62.7818L60.0705 28.0735H48.5454L45.9227 34.5H40.5L51.471 8.5H57.4478ZM50.1559 24.1287H58.3934L54.3449 14.3886H54.1749L50.1559 24.1287Z" fill="#1E1E1E"/>
<path d="M74.8609 34.4706H69.5V15.0296H74.8609V18.1999C75.8383 15.9932 78.3496 14.5 81.2895 14.5C86.5752 14.5 88.5 18.0307 88.5 22.3558V34.5H83.1692V23.4077C83.1692 20.4066 81.9586 18.6927 79.3195 18.6927C76.5902 18.6927 74.891 20.8038 74.891 24.077L74.8609 34.4706Z" fill="#1E1E1E"/>
<path d="M99.5599 28.4044C98.1488 28.4338 96.7522 28.1984 95.4283 27.7128C95.1955 27.8526 94.9991 28.0586 94.8609 28.294C94.73 28.5368 94.6573 28.809 94.6573 29.0812C94.6573 29.9419 95.2101 30.5011 96.614 30.5011H104.113C108.289 30.5011 110.42 32.7743 110.42 35.82C110.42 40.5431 104.964 42.5 99.1308 42.5C93.9299 42.5 89.5 41.1684 89.5 37.6592C89.5 35.7244 91.0275 34.356 93.2461 34.0617C92.4969 33.8484 91.8349 33.3923 91.3694 32.7669C90.9039 32.1416 90.6493 31.3765 90.6493 30.5893C90.6493 28.8752 91.8422 27.5878 93.6753 26.8521C92.8679 26.3297 92.2132 25.6088 91.7549 24.7627C91.2967 23.9167 91.0639 22.9677 91.0712 22.0039C91.0712 17.9724 94.6063 15.5226 99.5526 15.5226C101.662 15.4711 103.742 16.0523 105.517 17.1999C106.085 16.3907 106.827 15.7286 107.692 15.2578C108.558 14.7869 109.518 14.5294 110.5 14.5V18.6125C109.402 18.6125 108.311 18.7817 107.263 19.1274C107.794 19.9882 108.078 20.9813 108.07 21.9966C108.056 25.9619 104.477 28.4044 99.5599 28.4044ZM99.1308 39.3881C102.877 39.3881 105.605 38.5273 105.605 36.6881C105.605 35.4375 104.586 34.9666 102.877 34.9666H96.5921C95.2319 34.9666 94.1263 35.5257 94.1263 36.9015C94.1263 38.6156 96.083 39.3954 99.1089 39.3954H99.1308V39.3881ZM99.6036 18.664C97.6832 18.664 96.3666 19.8263 96.3666 22.0113C96.3666 24.1963 97.6905 25.3586 99.6036 25.3586C101.524 25.3586 102.884 24.1963 102.884 22.0113C102.884 19.8263 101.546 18.664 99.5817 18.664H99.6036Z" fill="#1E1E1E"/>
<path d="M130.367 27.8137C129.34 32.0211 125.956 34.5 120.925 34.5C114.866 34.5 110.5 30.7633 110.5 24.7905C110.5 18.8178 114.911 14.5 120.792 14.5C127.19 14.5 130.5 18.8031 130.5 23.952V25.7983H115.783C115.849 27.1076 116.44 28.3433 117.438 29.2334C118.435 30.1234 119.757 30.6015 121.117 30.5647C123.747 30.5647 125.306 29.4908 126.06 27.343L130.367 27.8137ZM125.291 22.6133C125.114 20.4213 123.732 18.3176 120.748 18.3176C117.763 18.3176 116.337 20.2521 115.849 22.6133H125.291Z" fill="#1E1E1E"/>
<path d="M136.5 8.5V34.5H131.5V8.5H136.5Z" fill="#1E1E1E"/>
<path d="M145.676 8.5V30.2181H155.5V34.5H140.5V8.5H145.676Z" fill="#1E1E1E"/>
<path d="M156.5 8.5H161.5V13.327H156.5V8.5ZM161.458 16.3036V34.5H156.59V16.3251L161.458 16.3036Z" fill="#1E1E1E"/>
<path d="M168.886 27.5169C169.183 29.7907 170.872 30.9606 173.439 30.9606C175.302 30.9606 176.817 30.3131 176.817 28.9371C176.817 27.6494 175.969 27.0901 174.113 26.7884L171.155 26.2734C167.182 25.6258 164.986 24.1174 164.986 20.6074C164.986 17.0018 167.987 14.5 172.714 14.5C177.868 14.5 180.956 16.8694 181.312 21.0857L177.129 21.255C176.788 19.1063 175.352 18.032 172.692 18.032C170.872 18.032 169.691 18.8488 169.691 20.1365C169.691 21.1667 170.372 21.7774 171.713 21.9834L175.251 22.5868C179.18 23.2344 181.5 24.9121 181.5 28.4809C181.5 32.3514 178.209 34.5 173.41 34.5C168.61 34.5 164.833 32.344 164.5 27.7009L168.886 27.5169Z" fill="#1E1E1E"/>
<path d="M184.143 19.0981H181.5V16.134L182.76 15.9207C184.561 15.6339 185.065 14.7145 185.483 13.0007L186.073 10.5H189.134V15.5897H194.154V19.0908H189.134V28.1891C189.134 29.7704 189.847 30.4838 191.36 30.4838C192.455 30.4177 193.528 30.1161 194.5 29.6086V32.9037C193.031 34.007 191.223 34.5733 189.386 34.4924C186.534 34.4924 184.143 33.2347 184.143 29.3144V19.0981Z" fill="#1E1E1E"/>
</g>
<defs>
<clipPath id="clip0_2560_92423">
<rect width="300" height="42" fill="white" transform="translate(0.5 0.5)"/>
</clipPath>
</defs>
</svg>
