<svg width="146" height="117" viewBox="0 0 146 117" fill="none" xmlns="http://www.w3.org/2000/svg">
<g clip-path="url(#clip0_2560_92449)">
<path d="M65.2682 89.1716C68.3438 89.1716 71.2564 91.0209 71.8721 95.0011H58.1718C58.7464 91.5024 61.4128 89.1716 65.2682 89.1716ZM71.433 100.896C68.5204 105.62 58.8036 104.149 58.1718 98.056H75.3581C77.5009 83.1093 54.6759 81.477 54.5217 96.4481C53.8451 106.826 69.1969 110.882 74.5372 102.479L71.433 100.896Z" fill="#006BFF"/>
<path d="M53.5 77H49.5V106H53.5V77Z" fill="#006BFF"/>
<path d="M94.4742 93.4523V106H90.9445V93.6568C90.9445 90.3107 89.0376 88.4245 85.914 88.4245C77.6491 87.9846 80.5008 100.656 80.0309 106H76.5V85.5643H80.0309V88.5113C84.1375 81.9939 95.1016 85.0698 94.4742 93.456" fill="#006BFF"/>
<path d="M114.884 96.4019C114.978 86.9167 100.045 86.8774 100.13 96.4019C100.047 105.926 114.979 105.886 114.884 96.4019ZM118.5 77V106.507H114.884V103.03C109.673 111.004 95.9964 106.028 96.5144 96.4019C95.9952 86.7769 109.676 81.7972 114.884 89.7724V77H118.5Z" fill="#006BFF"/>
<path d="M125.5 77H121.5V106H125.5V77Z" fill="#006BFF"/>
<path d="M42.8845 95.5017C42.9777 86.1038 28.0442 86.0637 28.1299 95.5017C28.0455 104.939 42.979 104.899 42.8845 95.5017ZM46.5 85.4893V105.514H42.8845V102.07C37.6735 109.964 23.9964 105.039 24.5144 95.5017C23.9952 85.9653 37.6748 81.0313 42.8845 88.9332V85.4893H46.5Z" fill="#006BFF"/>
<path d="M19.4571 101.601C11.7535 104.625 2.89913 97.5464 4.5558 89.6644C5.98457 80.535 18.6557 77.4451 24.3908 84.8251L27.5 82.628C19.824 72.607 2.69126 76.718 0.759104 89.0401C-1.73404 101.77 14.328 111.075 24.7564 102.953L22.6878 99.7894C21.7212 100.559 20.6291 101.169 19.4558 101.593" fill="#006BFF"/>
<path d="M141.812 86C141.199 90.7824 144.476 103.607 136.17 103.335C127.585 103.509 130.9 90.9994 130.292 86H126.613C126.74 93.596 124.382 106.722 136.175 106.518C141.19 106.518 141.973 103.487 141.973 103.409V107.491C142.77 115.191 131.815 115.967 130.658 109.148L127.367 110.246C127.838 112.17 128.976 113.885 130.597 115.111C132.217 116.337 134.225 117.003 136.292 117C142.248 117 145.5 113.257 145.5 107.491V86H141.812Z" fill="#006BFF"/>
<path d="M85.3349 26.3993C84.2188 25.2764 82.868 24.3987 81.3734 23.8252C80.3048 23.3315 79.1392 23.067 77.9559 23.0499L74.8879 23.0012C73.6836 22.9822 72.4872 23.1938 71.367 23.6239C70.2469 24.0541 69.225 24.6943 68.3597 25.5081C67.4944 26.3219 66.8027 27.2932 66.3241 28.3667C65.8454 29.4401 65.5892 30.5947 65.5701 31.7643L65.5012 35.9024C65.4816 37.0721 65.6995 38.234 66.1424 39.3218C66.5854 40.4096 67.2446 41.4021 68.0825 42.2424C68.9205 43.0827 69.9207 43.7545 71.026 44.2194C72.1313 44.6842 73.3201 44.933 74.5245 44.9516C74.5245 44.9516 75.6198 44.9723 76.5297 44.9869C77.1162 44.9954 77.625 45.0027 77.7127 44.999C78.6513 45.0016 79.5835 44.8497 80.4699 44.5499C82.2014 44.0457 83.7824 43.144 85.0793 41.921C88.4968 38.7005 93.1138 37.1354 97.6856 37.2072C98.8515 37.2256 100.013 37.3515 101.155 37.5833C101.577 35.4936 101.612 33.3476 101.26 31.2458C100.115 31.4393 98.9531 31.5273 97.7908 31.5087C93.2178 31.4369 88.6535 29.7269 85.3374 26.3969" fill="#006BFF"/>
<path d="M87.9675 44.5129C86.2599 46.1253 84.184 47.3227 81.9092 48.0075C80.6676 48.4234 79.3639 48.6381 78.0505 48.6429C77.9164 48.6429 77.6444 48.6429 76.7483 48.6343L74.7356 48.6039C71.3086 48.5517 68.0426 47.1821 65.6533 44.7954C63.264 42.4087 61.9462 39.1994 61.9888 35.8708L62.0477 31.7323C62.0962 28.4004 63.5042 25.2233 65.9625 22.8987C68.4208 20.5741 71.7285 19.292 75.1592 19.3339L78.2272 19.3753C79.9052 19.3958 81.5601 19.7582 83.0848 20.4392C85.0356 21.2006 86.7992 22.3527 88.2607 23.8205C90.7397 26.2963 94.319 27.7448 98.0812 27.7947C98.8908 27.805 99.6998 27.75 100.5 27.6304C100.188 26.8476 99.8198 26.0874 99.3971 25.3554L95.888 19.2694C94.3094 16.5256 92.015 14.2336 89.2355 12.6236C86.4559 11.0137 83.2891 10.1426 80.0532 10.0978L72.872 10.0017C69.6349 9.95868 66.4431 10.7439 63.6174 12.2784C60.7916 13.8129 58.4314 16.0426 56.774 18.7436L53.0982 24.7359C51.4412 27.4372 50.5457 30.5147 50.5017 33.6588C50.4577 36.8029 51.2668 39.9028 52.8475 42.6469L56.3567 48.7329C57.936 51.4765 60.231 53.7681 63.0109 55.3776C65.7909 56.9871 68.9579 57.8577 72.194 57.9021L79.3739 57.9983C82.6108 58.0421 85.8025 57.2577 88.6283 55.7238C91.4541 54.1899 93.8144 51.9606 95.4719 49.26L99.1465 43.2665C99.5871 42.5483 99.9749 41.8007 100.307 41.0293C99.5104 40.8878 98.703 40.8109 97.8932 40.7992C94.1335 40.7481 90.5203 42.1004 87.9725 44.5093" fill="#006BFF"/>
<path d="M108.171 40.8845C106.03 39.2659 103.529 38.168 100.874 37.6806C100.652 38.8929 100.304 40.0795 99.8343 41.2215C101.928 41.5543 103.913 42.3652 105.63 43.589L105.615 43.6354C103.632 49.8452 99.7157 55.2872 94.4168 59.1943C89.7509 62.619 84.2068 64.701 78.4049 65.2075C72.603 65.714 66.772 64.625 61.5643 62.0623C56.3565 59.4996 51.9774 55.5644 48.9169 50.6967C45.8563 45.8291 44.235 40.221 44.2343 34.5C44.2351 28.7808 45.8553 23.1744 48.9138 18.3076C51.9723 13.4409 56.3486 9.50543 61.5535 6.94123C66.7584 4.37702 72.5869 3.2851 78.3873 3.7875C84.1878 4.2899 89.7317 6.36684 94.3994 9.78615C99.6943 13.6858 103.612 19.1173 105.601 25.317C105.612 25.3512 105.621 25.3805 105.629 25.4061L105.602 25.4257C103.893 26.6414 101.918 27.4464 99.8343 27.7761C100.304 28.9202 100.653 30.1088 100.875 31.323C103.395 30.8602 105.776 29.8471 107.844 28.3585C109.896 26.8322 109.385 24.9165 109.166 24.2255C104.715 10.1903 91.3823 0 75.6257 0C56.2268 0 40.5 15.4466 40.5 34.5C40.5 53.5534 56.2268 69 75.6257 69C91.3997 69 104.745 58.7877 109.181 44.7269C109.697 43.5304 109.732 42.1323 108.171 40.8845Z" fill="#006BFF"/>
<path d="M98.1207 28.3657C94.41 28.3163 90.8748 26.8831 88.4282 24.4333C86.9846 22.9831 85.2436 21.8452 83.3185 21.0934C81.8142 20.4194 80.1812 20.0607 78.5254 20.0407L75.4974 20.001C72.1136 19.9598 68.8512 21.2271 66.4257 23.525C64.0002 25.8228 62.6097 28.9636 62.5592 32.2584L62.5011 36.3535C62.4571 39.6479 63.7565 42.8248 66.1144 45.1878C68.4723 47.5508 71.6962 48.907 75.0793 48.959L77.0658 48.9891C77.9515 49.0012 78.2186 49.0012 78.351 48.9987C79.6468 48.9924 80.9328 48.78 82.1583 48.37C84.4036 47.6933 86.4528 46.5092 88.1388 44.9145C90.6547 42.5274 94.2244 41.1904 97.9352 41.2398C98.7365 41.2511 99.5354 41.3272 100.324 41.4675C100.807 40.346 101.17 39.1792 101.408 37.9855C100.282 37.7605 99.1359 37.6395 97.9859 37.6241C93.4736 37.5639 88.9267 39.1237 85.5524 42.3214C84.2751 43.5345 82.7169 44.4305 81.0091 44.9338C80.1349 45.2333 79.2147 45.3856 78.2879 45.3843C78.2013 45.3843 77.6991 45.3843 77.1203 45.3746L75.1412 45.3457C72.7411 45.3134 70.4524 44.3541 68.7786 42.6788C67.1048 41.0036 66.1829 38.7495 66.2156 36.4125L66.2737 32.3114C66.3069 29.9745 67.2921 27.7461 69.0126 26.1164C70.7331 24.4868 73.0479 23.5893 75.4479 23.6215L78.4772 23.6612C79.6458 23.675 80.7978 23.9329 81.8552 24.4176C83.3316 24.9823 84.6668 25.8479 85.7713 26.9565C89.0528 30.241 93.5639 31.9224 98.075 31.9838C99.2228 31.9989 100.37 31.9086 101.5 31.714C101.295 30.5137 100.963 29.3372 100.51 28.2031C99.7207 28.3215 98.9222 28.3759 98.1232 28.3657" fill="#0AE8F0"/>
</g>
<defs>
<clipPath id="clip0_2560_92449">
<rect width="145" height="117" fill="white" transform="translate(0.5)"/>
</clipPath>
</defs>
</svg>
