<svg width="67" height="54" viewBox="0 0 67 54" fill="none" xmlns="http://www.w3.org/2000/svg">
<g clip-path="url(#clip0_2560_92703)">
<path d="M30.1277 40.5103C31.5923 40.5103 32.9793 41.3909 33.2724 43.2862H26.7485C27.0221 41.6202 28.2918 40.5103 30.1277 40.5103ZM33.0634 46.0935C31.6764 48.3429 27.0493 47.6423 26.7485 44.7409H34.9324C35.9528 37.6235 25.0838 36.8462 25.0103 43.9753C24.6881 48.9171 31.9985 50.8484 34.5415 46.847L33.0634 46.0935Z" fill="#006BFF"/>
<path d="M24 35H22V49H24V35Z" fill="#006BFF"/>
<path d="M42.9885 43.0249V49H41.4198V43.1223C41.4198 41.5289 40.5723 40.6307 39.184 40.6307C35.5107 40.4212 36.7781 46.4553 36.5693 49H35V39.2687H36.5693V40.672C38.3944 37.5685 43.2674 39.0332 42.9885 43.0267" fill="#006BFF"/>
<path d="M52.3566 44.0542C52.399 39.6278 45.6116 39.6095 45.65 44.0542C45.6122 48.499 52.3995 48.4801 52.3566 44.0542ZM54 35V48.7701H52.3566V47.1474C49.9879 50.8686 43.7711 48.5464 44.0065 44.0542C43.7705 39.5626 49.9891 37.2387 52.3566 40.9605V35H54Z" fill="#006BFF"/>
<path d="M58 35H56V49H58V35Z" fill="#006BFF"/>
<path d="M19.3566 44.0008C19.399 39.5256 12.611 39.5065 12.65 44.0008C12.6116 48.4946 19.3995 48.4755 19.3566 44.0008ZM21 39.233V48.7687H19.3566V47.1287C16.988 50.8875 10.7711 48.5426 11.0065 44.0008C10.7705 39.4597 16.9885 37.1102 19.3566 40.873V39.233H21Z" fill="#006BFF"/>
<path d="M8.42536 47.0278C5.00155 48.3837 1.06628 45.2105 1.80258 41.6771C2.43759 37.5847 8.06918 36.1995 10.6181 39.5078L12 38.5229C8.58843 34.0307 0.973894 35.8736 0.115157 41.3973C-0.992907 47.1038 6.14579 51.2749 10.7806 47.6342L9.86123 46.216C9.43166 46.5611 8.94625 46.8344 8.42481 47.0246" fill="#006BFF"/>
<path d="M65.253 40C64.9628 42.1598 66.515 47.9515 62.5806 47.8289C58.514 47.9072 60.0843 42.2578 59.7964 40H58.0537C58.1138 43.4305 56.9966 49.3585 62.583 49.266C64.9586 49.266 65.3294 47.8973 65.3294 47.8623V49.7056C65.7068 53.1832 60.5176 53.5335 59.9695 50.454L58.4106 50.95C58.6336 51.8187 59.1728 52.593 59.9405 53.1469C60.7082 53.7007 61.6591 54.0014 62.6383 54C65.4598 54 67 52.3094 67 49.7056V40H65.253Z" fill="#006BFF"/>
<path d="M38.8155 12.5451C38.3195 12.0347 37.7191 11.6358 37.0549 11.3751C36.5799 11.1507 36.0619 11.0305 35.5359 11.0227L34.1724 11.0005C33.6372 10.9919 33.1054 11.0881 32.6076 11.2836C32.1097 11.4791 31.6556 11.7701 31.271 12.14C30.8864 12.5099 30.579 12.9515 30.3663 13.4394C30.1535 13.9273 30.0397 14.4521 30.0312 14.9838L30.0005 16.8647C29.9918 17.3964 30.0887 17.9245 30.2855 18.419C30.4824 18.9135 30.7754 19.3646 31.1478 19.7466C31.5202 20.1285 31.9647 20.4339 32.456 20.6452C32.9473 20.8565 33.4756 20.9696 34.0109 20.978C34.0109 20.978 34.4977 20.9874 34.9021 20.994C35.1628 20.9979 35.3889 21.0012 35.4279 20.9996C35.845 21.0007 36.2593 20.9317 36.6533 20.7954C37.4228 20.5662 38.1255 20.1564 38.7019 19.6005C40.2208 18.1366 42.2728 17.4252 44.3047 17.4578C44.8229 17.4662 45.3391 17.5234 45.8465 17.6287C46.034 16.6789 46.0499 15.7035 45.8932 14.7481C45.3843 14.836 44.868 14.876 44.3515 14.8676C42.319 14.835 40.2904 14.0577 38.8166 12.544" fill="#006BFF"/>
<path d="M40.235 20.8184C39.4496 21.5574 38.4947 22.1062 37.4483 22.4201C36.8771 22.6107 36.2774 22.7091 35.6732 22.7113C35.6115 22.7113 35.4864 22.7113 35.0742 22.7074L34.1484 22.6935C32.5719 22.6695 31.0696 22.0418 29.9705 20.9479C28.8714 19.854 28.2653 18.3831 28.2848 16.8574L28.3119 14.9606C28.3343 13.4335 28.9819 11.9773 30.1128 10.9119C31.2436 9.84646 32.7651 9.25883 34.3432 9.27805L35.7545 9.29702C36.5264 9.3064 37.2877 9.47252 37.989 9.78461C38.8864 10.1336 39.6976 10.6617 40.3699 11.3344C41.5102 12.4691 43.1567 13.133 44.8874 13.1559C45.2598 13.1606 45.6319 13.1354 46 13.0806C45.8567 12.7218 45.6871 12.3734 45.4927 12.0379L43.8785 9.24849C43.1523 7.99089 42.0969 6.94038 40.8183 6.2025C39.5397 5.46463 38.083 5.06537 36.5945 5.04484L33.2911 5.00077C31.802 4.98106 30.3338 5.34094 29.034 6.04425C27.7341 6.74756 26.6485 7.76953 25.886 9.00748L24.1952 11.7539C23.433 12.9921 23.021 14.4026 23.0008 15.8436C22.9805 17.2847 23.3527 18.7055 24.0799 19.9632L25.6941 22.7526C26.4206 24.0101 27.4762 25.0604 28.755 25.7981C30.0338 26.5357 31.4907 26.9348 32.9792 26.9551L36.282 26.9992C37.771 27.0193 39.2392 26.6598 40.539 25.9567C41.8389 25.2537 42.9246 24.232 43.6871 22.9942L45.3774 20.2471C45.5801 19.918 45.7585 19.5753 45.9112 19.2218C45.5448 19.1569 45.1734 19.1217 44.8009 19.1163C43.0714 19.0929 41.4094 19.7127 40.2373 20.8167" fill="#006BFF"/>
<path d="M50.3835 18.9609C49.3907 18.2103 48.231 17.7011 46.9993 17.4751C46.8967 18.0373 46.7352 18.5876 46.5174 19.1172C47.4884 19.2715 48.409 19.6476 49.2051 20.2152L49.1982 20.2367C48.2788 23.1166 46.4624 25.6405 44.0049 27.4524C41.841 29.0407 39.2698 30.0063 36.5791 30.2412C33.8883 30.4761 31.1841 29.971 28.7689 28.7825C26.3538 27.594 24.3229 25.769 22.9035 23.5115C21.4841 21.2541 20.7322 18.6532 20.7319 16C20.7322 13.3476 21.4836 10.7476 22.9021 8.4905C24.3205 6.23345 26.3501 4.40832 28.764 3.21912C31.1778 2.02992 33.8809 1.52352 36.5709 1.75652C39.261 1.98952 41.8321 2.95274 43.9968 4.53851C46.4524 6.34706 48.2693 8.866 49.1919 11.7412C49.197 11.7571 49.2011 11.7707 49.2045 11.7826L49.1924 11.7916C48.3998 12.3554 47.4836 12.7288 46.5174 12.8817C46.7353 13.4123 46.897 13.9635 46.9999 14.5266C48.1685 14.312 49.2731 13.8421 50.2319 13.1518C51.1837 12.4439 50.9468 11.5555 50.8453 11.235C48.7808 4.72593 42.5976 0 35.2902 0C26.2936 0 19 7.16365 19 16C19 24.8364 26.2936 32 35.2902 32C42.6057 32 48.7946 27.2639 50.8522 20.7429C51.0915 20.188 51.1076 19.5396 50.3835 18.9609Z" fill="#006BFF"/>
<path d="M44.4403 13.0386C42.7277 13.0148 41.0961 12.3229 39.9669 11.1402C39.3006 10.4401 38.497 9.89077 37.6085 9.52784C36.9142 9.20245 36.1606 9.02931 35.3963 9.01966L33.9988 9.00047C32.4371 8.98059 30.9313 9.5924 29.8119 10.7017C28.6924 11.811 28.0506 13.3273 28.0273 14.9179L28.0005 16.8948C27.9802 18.4852 28.5799 20.0189 29.6682 21.1596C30.7564 22.3004 32.2444 22.9551 33.8058 22.9802L34.7227 22.9947C35.1315 23.0006 35.2548 23.0006 35.3158 22.9994C35.9139 22.9963 36.5074 22.8938 37.073 22.6959C38.1093 22.3692 39.0551 21.7976 39.8333 21.0277C40.9945 19.8753 42.642 19.2299 44.3547 19.2537C44.7245 19.2591 45.0933 19.2959 45.4571 19.3636C45.68 18.8222 45.8478 18.2589 45.9578 17.6826C45.4378 17.574 44.9089 17.5156 44.3781 17.5082C42.2955 17.4791 40.1969 18.2321 38.6396 19.7759C38.0501 20.3615 37.3309 20.794 36.5427 21.037C36.1392 21.1816 35.7145 21.2551 35.2867 21.2545C35.2468 21.2545 35.015 21.2545 34.7478 21.2498L33.8344 21.2359C32.7267 21.2202 31.6704 20.7571 30.8978 19.9484C30.1253 19.1397 29.6998 18.0515 29.7149 16.9233L29.7417 14.9434C29.757 13.8153 30.2118 12.7395 31.0058 11.9528C31.7999 11.166 32.8683 10.7328 33.976 10.7483L35.3741 10.7675C35.9134 10.7741 36.4451 10.8987 36.9332 11.1326C37.6146 11.4052 38.2308 11.8231 38.7406 12.3583C40.2552 13.9439 42.3372 14.7556 44.4192 14.7853C44.949 14.7926 45.4783 14.749 46 14.655C45.9054 14.0756 45.7524 13.5076 45.5433 12.9601C45.1788 13.0173 44.8102 13.0435 44.4415 13.0386" fill="#0AE8F0"/>
</g>
<defs>
<clipPath id="clip0_2560_92703">
<rect width="67" height="54" fill="white"/>
</clipPath>
</defs>
</svg>
