<svg width="1440" height="1080" viewBox="0 0 1440 1080" fill="none" xmlns="http://www.w3.org/2000/svg">
<path d="M64.2148 608.623C200.447 567.208 555.385 545.482 885.277 789.896C1297.64 1095.41 1782.54 758.937 1852.21 481.935" stroke="#BCD7FF"/>
<path d="M64.2148 776.623C200.447 735.208 555.385 713.482 885.277 957.896C1297.64 1263.41 1782.54 926.937 1852.21 649.935" stroke="#BCD7FF"/>
<path d="M137.215 442.623C273.447 401.208 628.385 379.482 958.277 623.896C1370.64 929.414 1855.54 592.937 1925.21 315.935" stroke="#BCD7FF"/>
<path d="M1801 389.266C1665.51 433.052 1311.01 460.969 976.903 222.349C559.269 -75.9254 80.3204 268.963 15.4871 547.139" stroke="#BCD7FF"/>
<path d="M1793 302.266C1657.51 346.052 1303.01 373.969 968.903 135.349C551.269 -162.925 72.3204 181.963 7.48712 460.139" stroke="#BCD7FF"/>
</svg>
