<svg width="301" height="61" viewBox="0 0 301 61" fill="none" xmlns="http://www.w3.org/2000/svg">
<g clip-path="url(#clip0_2560_92441)">
<path d="M0.5 0H60.5V61H0.5V0Z" fill="#FF5A00"/>
<path d="M168.591 12C169.105 12 169.233 12.6468 169.233 13.1643C169.361 15.2342 169.49 17.1747 169.49 19.2446C169.618 21.1852 169.618 23.1257 169.618 25.0662C170.774 24.1606 171.801 23.2551 173.085 22.867C175.139 21.9614 177.579 21.9614 179.633 22.9963C181.816 24.1606 183.228 26.2305 183.998 28.4298C184.64 30.6291 184.897 32.9577 184.769 35.157C184.512 37.8737 183.87 40.4611 182.329 42.6604C181.43 43.954 180.275 44.989 178.734 45.5065C176.295 46.412 173.727 46.0239 171.544 44.7303C170.902 44.3421 170.26 43.6953 169.747 43.1778C169.49 43.954 169.361 44.7303 169.105 45.5065C167.949 45.5065 166.922 45.6358 165.766 45.3771C166.152 43.5659 166.152 41.6254 166.28 39.8142C166.408 33.2164 166.28 26.6187 166.28 20.1502C166.152 17.5628 166.28 14.9755 165.895 12.5175C166.665 12.2587 167.692 12 168.591 12ZM177.065 25.5837C176.038 25.325 175.011 25.325 174.112 25.4543C172.314 25.7131 170.902 27.0068 169.747 28.3004C169.747 28.6885 169.747 29.206 169.747 29.5941V40.073C169.747 40.4611 170.003 40.7198 170.26 40.8492C172.058 42.531 174.626 43.3072 176.937 42.7897C178.092 42.531 179.119 41.7548 179.633 40.7198C180.532 39.2968 180.788 37.615 180.917 35.9332C181.045 34.6395 181.174 33.3458 181.045 32.1815C181.045 30.7584 180.66 29.206 179.89 27.9123C179.248 26.6187 178.221 25.8424 177.065 25.5837ZM191.83 12.9056C192.472 12.6468 193.371 12.6468 194.013 13.0349C194.655 13.4231 195.169 14.0699 195.425 14.7167C195.811 16.2692 194.655 17.951 193.114 18.0803C191.959 18.2097 190.675 17.5628 190.29 16.2692C189.776 15.1048 190.546 13.4231 191.83 12.9056ZM85.6486 15.6223C87.3178 14.458 89.3721 13.5524 91.4264 13.5524C93.6091 13.5524 95.7918 13.6818 97.7177 14.5874C98.488 14.9755 99.2584 15.3636 100.029 15.8811C99.5152 16.7866 98.8732 17.4335 98.2312 18.2097C97.4609 17.8216 96.6905 17.3041 95.7918 16.916C93.7375 16.1398 91.298 16.0104 89.2437 16.916C87.4462 17.5628 86.0338 18.9859 85.1351 20.6677C84.6215 21.9614 84.1079 23.2551 83.8511 24.5488C83.5943 25.8424 83.5943 27.1361 83.4659 28.4298C83.4659 30.1116 83.3376 31.9228 83.4659 33.6046C83.7227 36.0626 84.6215 38.3912 86.1622 40.2024C87.5745 41.8841 89.6289 42.7897 91.8115 43.0485C92.9671 43.0485 93.9942 43.0485 95.1498 42.7897C96.4337 42.531 97.5893 41.7548 98.8732 41.2373C99.5152 41.8841 100.157 42.7897 100.799 43.5659C99.9004 44.0834 99.0016 44.6009 97.9744 44.989C95.4066 46.0239 92.4535 46.1533 89.7572 45.7652C87.7029 45.3771 85.9054 44.3421 84.3647 43.0485C82.5672 41.496 81.2832 39.4261 80.5129 37.2269C79.9993 35.6745 79.7425 34.122 79.6141 32.5696C79.6141 31.4053 79.3573 30.241 79.6141 28.9473C79.6141 26.748 79.9993 24.4194 80.8981 22.3495C81.7968 19.7621 83.3375 17.3041 85.6486 15.6223Z" fill="#FF5A00"/>
<path d="M18.5 15.1631C18.754 15.1631 19.0079 15.0326 19.2619 15.0326C20.5317 15.0326 21.8016 15.0326 23.0714 15.1631C23.3254 15.1631 23.3254 15.2936 23.4524 15.4241C25.3571 19.4689 27.2619 23.6442 29.2936 27.8196C29.6746 28.7329 30.0556 29.5158 30.5635 30.2987C30.9444 29.6463 31.3254 28.9939 31.7063 28.211C33.8651 23.7747 36.0238 19.4689 38.1825 15.0326C39.5794 15.0326 40.9762 14.9021 42.5 15.1631C42.246 16.0765 41.7381 16.7288 41.3571 17.5117C38.5635 23.1223 35.6429 28.7329 32.7222 34.3435C32.5952 34.6045 32.5952 34.735 32.5952 34.9959C32.5952 39.0408 32.5952 43.0856 32.5952 47C31.1984 47 29.8016 47 28.4048 47C28.4048 43.0856 28.4048 39.1713 28.4048 35.2569C28.4048 34.8654 28.4048 34.3435 28.1508 33.9521C25.4841 28.8634 22.9444 23.7747 20.2778 18.5556C19.7698 17.5117 19.1349 16.3374 18.5 15.1631Z" fill="#FFFEFE"/>
<path d="M250.89 16.8974C252.05 16.5128 253.209 16.2564 254.498 16C254.24 18.1795 254.111 20.359 254.111 22.6667C255.915 22.6667 257.848 22.6667 259.652 22.7949C259.395 23.6923 259.008 24.4615 258.621 25.2308C257.075 25.2308 255.529 25.2308 253.854 25.2308C253.854 27.2821 253.854 29.3333 253.854 31.3846C253.854 32.9231 253.983 34.5897 253.854 36.2564C253.854 38.0513 253.854 39.9744 253.983 41.7692C253.983 42.5385 254.756 43.0513 255.4 43.3077C256.56 43.5641 257.719 43.4359 258.879 43.1795C259.137 43.8205 259.266 44.5897 259.266 45.2308C258.235 45.7436 257.075 45.8718 255.915 46C254.369 46 252.565 45.7436 251.405 44.5897C250.503 43.6923 250.503 42.2821 250.375 41.1282C250.246 38.5641 250.375 35.8718 250.246 33.3077C250.246 30.6154 250.246 28.0513 250.246 25.359C249.215 25.359 248.184 25.359 247.282 25.359C247.282 24.4615 247.282 23.5641 247.282 22.7949C248.313 22.7949 249.215 22.7949 250.246 22.7949C250.632 20.7436 250.632 18.6923 250.89 16.8974ZM114.301 22.0256C115.203 22.0256 116.234 22.0256 117.136 22.2821C119.198 22.9231 121.002 24.4615 122.033 26.2564C122.935 27.9231 123.579 29.7179 123.708 31.641C123.837 34.2051 123.966 36.7692 123.064 39.2051C122.29 41.5128 120.744 43.5641 118.554 44.7179C116.363 45.8718 113.786 46 111.466 45.359C109.405 44.8462 107.601 43.4359 106.312 41.641C105.023 39.718 104.508 37.4103 104.508 34.9744C104.508 32.7949 104.379 30.4872 105.152 28.3077C105.797 26.2564 107.214 24.3333 109.147 23.0513C110.049 22.5385 110.951 22.0256 111.982 21.8974C112.755 22.0256 113.528 22.0256 114.301 22.0256ZM112.497 24.9744C111.337 25.2308 110.178 26 109.533 27.0256C108.631 28.5641 108.374 30.359 108.374 32.1538C108.245 33.4359 108.374 34.7179 108.503 36C108.76 37.5385 109.018 39.2051 109.791 40.6154C110.564 42.1538 112.239 42.7949 113.915 42.9231C115.461 43.0513 117.136 42.6667 118.296 41.3846C119.198 40.359 119.713 39.2051 119.842 37.7949C120.1 36.1282 120.1 34.4615 119.971 32.9231C119.971 31.2564 119.713 29.4615 119.069 27.7949C118.682 26.7692 117.909 26 117.007 25.4872C115.59 24.7179 114.043 24.5897 112.497 24.9744ZM130.022 22.7949C131.053 22.4103 132.084 22.1538 133.243 22.0256C133.63 23.0513 133.888 24.0769 134.016 25.2308C134.79 24.8462 135.305 24.2051 136.078 23.8205C137.624 22.6667 139.557 22.0256 141.49 22.0256C141.877 22.0256 142.392 22.1538 142.779 22.4103C143.423 22.7949 144.067 23.0513 144.712 23.5641C145.227 24.0769 145.614 24.8462 146 25.4872C146.902 25.1026 147.546 24.3333 148.32 23.8205C149.608 22.9231 151.154 22.1538 152.958 22.0256C154.505 21.8974 156.051 22.4103 157.211 23.4359C157.726 23.9487 158.242 24.4615 158.499 25.1026C158.757 25.7436 158.886 26.3846 158.886 27.1538C159.144 30.7436 159.015 34.4615 159.144 38.0513C159.144 40.4872 159.144 42.9231 159.144 45.359C157.984 45.359 156.695 45.359 155.536 45.359C155.536 41.7692 155.536 38.0513 155.536 34.4615C155.536 32.1538 155.536 29.8462 155.407 27.4103C155.278 26.641 154.891 26 154.247 25.4872C153.603 25.1026 152.701 25.1026 151.799 25.1026C150.381 25.2308 149.222 26.1282 148.062 27.0256C147.546 27.4103 147.031 27.9231 146.516 28.3077C146.387 28.4359 146.387 28.6923 146.387 28.8205C146.387 34.3333 146.387 39.718 146.387 45.2308C145.227 45.2308 143.938 45.2308 142.779 45.2308V32.4103C142.779 31.3846 142.779 30.359 142.779 29.3333C142.779 28.3077 142.779 27.1538 142.392 26.2564C141.619 25.2308 140.202 24.9744 139.042 25.359C137.238 25.7436 135.692 26.8974 134.274 28.1795C134.016 28.3077 134.016 28.5641 134.016 28.8205C134.016 34.3333 134.016 39.8462 134.016 45.359C132.986 45.359 131.955 45.359 130.924 45.359C130.795 39.7179 130.924 34.0769 130.666 28.4359C130.666 27.1538 130.666 25.8718 130.408 24.5897C130.28 23.9487 130.022 23.3077 130.022 22.7949ZM191.487 22.6667C192.646 22.5385 193.806 22.2821 194.966 22.0256C195.095 25.2308 195.095 28.4359 195.095 31.5128C195.095 36.1282 195.095 40.6154 195.095 45.2308C193.935 45.2308 192.646 45.2308 191.487 45.2308C191.487 38.6923 191.487 32.1538 191.487 25.6154C191.487 24.7179 191.358 23.5641 191.487 22.6667ZM237.747 22.1538C240.195 22.5385 242.257 24.8462 242.385 27.4103C242.514 31.1282 242.385 34.9744 242.385 38.6923V39.8462C242.385 40.6154 242.385 41.3846 242.643 42.0256C242.772 42.7949 243.545 43.1795 244.061 43.5641C243.545 44.2051 243.159 45.1026 242.514 45.6154C242.128 46 241.612 45.6154 241.355 45.359C240.453 44.7179 239.937 43.8205 239.422 42.7949C238.649 43.1795 238.133 43.9487 237.231 44.3333C235.943 45.2308 234.396 45.6154 232.721 45.6154C231.304 45.6154 229.886 45.359 228.598 44.7179C226.536 43.5641 225.376 41.2564 225.505 38.9487C225.505 36.7692 226.665 34.5897 228.34 33.3077C230.402 31.7692 233.108 31.2564 235.685 31C236.844 30.8718 238.004 30.8718 239.293 30.8718C239.293 29.7179 239.293 28.5641 239.035 27.4103C238.906 26.5128 238.391 25.4872 237.489 24.9744C236.458 24.4615 235.169 24.3333 234.01 24.5897C231.819 24.8462 229.757 25.7436 227.953 27.0256C227.438 26.3846 226.922 25.7436 226.536 24.9744C226.278 24.5897 226.665 24.3333 226.923 24.2051C229.371 22.9231 231.948 21.7692 234.783 21.7692H235.943C236.587 22.0256 237.102 22.0256 237.747 22.1538ZM236.2 33.5641C235.041 33.6923 234.01 33.6923 232.85 33.9487C231.561 34.3333 230.402 35.1026 229.628 36.2564C229.242 36.8974 229.242 37.6667 229.242 38.4359C229.242 39.2051 229.113 40.1026 229.5 40.8718C229.757 41.641 230.402 42.4103 231.175 42.6667C232.077 43.0513 233.108 43.0513 234.138 43.0513C235.298 42.9231 236.329 42.2821 237.231 41.5128C238.004 40.8718 238.777 40.1026 238.777 39.0769C238.906 37.2821 238.906 35.359 238.906 33.5641C238.004 33.6923 237.102 33.4359 236.2 33.5641ZM275.373 22.2821C277.435 22.7949 279.239 24.0769 280.527 25.7436C281.558 27.1538 282.202 28.6923 282.46 30.359C282.718 31.8974 282.847 33.5641 282.718 35.2308C282.718 37.9231 281.816 40.4872 280.269 42.5385C278.981 44.2051 276.919 45.2308 274.986 45.6154C272.538 46 269.832 45.6154 267.641 44.0769C265.837 42.7949 264.678 40.7436 264.033 38.5641C263.647 37.4103 263.647 36.3846 263.518 35.2308C263.518 33.3077 263.518 31.5128 263.776 29.5897C264.291 27.5385 265.322 25.4872 266.868 23.9487C268.028 22.7949 269.574 22.1538 271.121 21.8974C272.667 21.8974 274.084 22.0256 275.373 22.2821ZM271.507 24.9744C269.832 25.2308 268.415 26.5128 267.899 28.0513C267.255 29.7179 267.255 31.5128 267.255 33.1795C267.255 34.8462 267.255 36.5128 267.641 38.0513C267.899 39.2051 268.157 40.2308 268.93 41.1282C269.574 42.0256 270.734 42.5385 271.765 42.6667C272.151 42.7949 272.667 42.7949 273.053 42.7949H273.44H273.827C274.729 42.6667 275.502 42.4103 276.275 42.0256C277.177 41.5128 277.821 40.6154 278.208 39.5897C278.594 38.4359 278.723 37.1538 278.852 36C278.852 34.5897 278.981 33.1795 278.852 31.641C278.723 30.1026 278.594 28.5641 277.821 27.2821C277.177 26.2564 276.275 25.4872 275.115 24.9744C273.955 24.7179 272.667 24.7179 271.507 24.9744ZM288.903 22.9231C290.063 22.6667 291.093 22.2821 292.124 22.0256C292.769 23.1795 292.769 24.4615 292.897 25.6154C293.413 25.2308 293.928 24.7179 294.444 24.2051C295.99 22.6667 298.309 21.7692 300.5 22.1538V22.4103C299.985 23.4359 299.727 24.5897 299.211 25.7436C299.211 26 298.825 25.8718 298.696 25.8718C297.794 25.8718 296.634 25.8718 295.861 26.3846C294.959 26.8974 294.315 27.5385 293.671 28.3077C293.026 29.0769 293.155 30.1026 293.155 31C293.155 32.2821 293.026 33.5641 293.155 34.8462C293.155 38.3077 293.155 41.8974 293.155 45.359C291.995 45.359 290.707 45.359 289.547 45.359C289.547 41.5128 289.547 37.5385 289.547 33.6923C289.547 31 289.547 28.4359 289.418 25.7436C289.289 24.7179 289.032 23.8205 288.903 22.9231ZM202.053 22.9231C203.084 22.5385 204.244 22.1538 205.274 22.1538C205.661 23.1795 205.919 24.3333 206.048 25.359C206.95 24.718 207.852 23.9487 208.754 23.4359C210.686 22.2821 213.006 21.5128 215.068 22.2821C216.356 22.6667 217.516 23.4359 218.289 24.5897C218.933 25.359 219.062 26.5128 219.191 27.4103C219.449 31 219.32 34.4615 219.32 38.0513C219.32 40.4872 219.32 42.7949 219.32 45.1026C218.16 45.1026 216.872 45.1026 215.712 45.1026C215.712 41.2564 215.583 37.2821 215.583 33.4359C215.583 31.2564 215.583 29.0769 215.325 26.8974C214.939 25.8718 214.037 24.9744 212.877 24.9744C212.104 24.9744 211.202 24.9744 210.429 25.2308C208.754 25.8718 207.207 26.8974 205.79 28.0513C205.79 33.6923 205.79 39.4615 205.79 45.1026C204.759 45.1026 203.728 45.1026 202.697 45.1026C202.697 41.8974 202.568 38.6923 202.568 35.359C202.568 32.0256 202.568 28.6923 202.311 25.359C202.568 24.718 202.311 23.8205 202.053 22.9231Z" fill="#FF5A00"/>
</g>
<defs>
<clipPath id="clip0_2560_92441">
<rect width="300" height="61" fill="white" transform="translate(0.5)"/>
</clipPath>
</defs>
</svg>
