<svg width="164" height="32" viewBox="0 0 164 32" fill="none" xmlns="http://www.w3.org/2000/svg">
<path d="M0 0H33.1086V32H0V0Z" fill="#FF5A00"/>
<path d="M91.6854 6C91.9653 6 92.0352 6.34245 92.0352 6.6164C92.1052 7.71223 92.1752 8.73957 92.1752 9.8354C92.2451 10.8627 92.2451 11.8901 92.2451 12.9174C92.8748 12.438 93.4345 11.9586 94.1341 11.7531C95.2534 11.2737 96.5827 11.2737 97.702 11.8216C98.8914 12.438 99.6609 13.5338 100.081 14.6981C100.431 15.8625 100.57 17.0953 100.5 18.2596C100.361 19.6979 100.011 21.0676 99.1712 22.232C98.6815 22.9168 98.0518 23.4648 97.2123 23.7387C95.8831 24.2181 94.4839 24.0127 93.2945 23.3278C92.9447 23.1223 92.5949 22.7799 92.3151 22.5059C92.1752 22.9168 92.1052 23.3278 91.9653 23.7387C91.3356 23.7387 90.776 23.8072 90.1463 23.6702C90.3562 22.7114 90.3562 21.684 90.4262 20.7252C90.4961 17.2322 90.4262 13.7393 90.4262 10.3148C90.3562 8.94504 90.4262 7.57525 90.2163 6.27396C90.636 6.13698 91.1957 6 91.6854 6ZM96.3028 13.1914C95.7431 13.0544 95.1835 13.0544 94.6937 13.1229C93.7143 13.2599 92.9447 13.9448 92.3151 14.6296C92.3151 14.8351 92.3151 15.1091 92.3151 15.3145V20.8622C92.3151 21.0676 92.455 21.2046 92.5949 21.2731C93.5744 22.1635 94.9736 22.5744 96.2329 22.3004C96.8625 22.1635 97.4222 21.7525 97.702 21.2046C98.1918 20.4512 98.3317 19.5609 98.4016 18.6705C98.4716 17.9856 98.5416 17.3007 98.4716 16.6843C98.4716 15.9309 98.2617 15.1091 97.842 14.4242C97.4922 13.7393 96.9325 13.3283 96.3028 13.1914ZM104.348 6.47942C104.698 6.34245 105.188 6.34245 105.538 6.54791C105.887 6.75338 106.167 7.09583 106.307 7.43827C106.517 8.26014 105.887 9.15051 105.048 9.21899C104.418 9.28748 103.719 8.94504 103.509 8.26015C103.229 7.64374 103.649 6.75338 104.348 6.47942ZM46.491 7.9177C47.4004 7.3013 48.5198 6.82187 49.6392 6.82187C50.8285 6.82187 52.0178 6.89036 53.0672 7.36979C53.487 7.57525 53.9068 7.78072 54.3265 8.05468C54.0467 8.5341 53.6969 8.87655 53.3471 9.28748C52.9273 9.08202 52.5076 8.80806 52.0178 8.60259C50.8985 8.19166 49.5692 8.12317 48.4499 8.60259C47.4704 8.94504 46.7008 9.69842 46.2111 10.5888C45.9313 11.2737 45.6514 11.9586 45.5115 12.6435C45.3716 13.3284 45.3716 14.0132 45.3016 14.6981C45.3016 15.5885 45.2317 16.5473 45.3016 17.4377C45.4416 18.739 45.9313 19.9718 46.7708 20.9307C47.5404 21.821 48.6597 22.3004 49.8491 22.4374C50.4787 22.4374 51.0384 22.4374 51.668 22.3004C52.3676 22.1635 52.9973 21.7525 53.6969 21.4786C54.0467 21.821 54.3965 22.3004 54.7463 22.7114C54.2566 22.9853 53.7668 23.2593 53.2072 23.4648C51.808 24.0127 50.1989 24.0812 48.7297 23.8757C47.6103 23.6702 46.6309 23.1223 45.7914 22.4374C44.8119 21.6156 44.1123 20.5197 43.6925 19.3554C43.4127 18.5335 43.2728 17.7117 43.2028 16.8898C43.2028 16.2734 43.0629 15.657 43.2028 14.9721C43.2028 13.8078 43.4127 12.575 43.9024 11.4791C44.3921 10.1094 45.2317 8.80806 46.491 7.9177Z" fill="#FF5A00"/>
<path d="M10.0332 8.08665C10.1712 8.08665 10.3092 8.01733 10.4473 8.01733C11.1374 8.01733 11.8274 8.01733 12.5175 8.08665C12.6556 8.08665 12.6556 8.15596 12.7246 8.22528C13.7597 10.3741 14.7948 12.5923 15.899 14.8104C16.106 15.2956 16.3131 15.7115 16.5891 16.1274C16.7961 15.7808 17.0031 15.4343 17.2102 15.0184C18.3833 12.6616 19.5565 10.3741 20.7296 8.01733C21.4887 8.01733 22.2479 7.94801 23.076 8.08665C22.9379 8.57187 22.6619 8.91845 22.4549 9.33435C20.9367 12.315 19.3495 15.2956 17.7622 18.2762C17.6932 18.4149 17.6932 18.4842 17.6932 18.6228C17.6932 20.7717 17.6932 22.9205 17.6932 25C16.9341 25 16.175 25 15.4159 25C15.4159 22.9205 15.4159 20.841 15.4159 18.7615C15.4159 18.5535 15.4159 18.2762 15.2779 18.0683C13.8287 15.3649 12.4485 12.6616 10.9993 9.88889C10.7233 9.33435 10.3782 8.7105 10.0332 8.08665Z" fill="#FFFEFE"/>
<path d="M136.363 8.47863C136.999 8.2735 137.634 8.13675 138.34 8C138.198 9.16239 138.128 10.3248 138.128 11.5556C139.116 11.5556 140.175 11.5556 141.163 11.6239C141.022 12.1026 140.81 12.5128 140.598 12.9231C139.751 12.9231 138.904 12.9231 137.987 12.9231C137.987 14.0171 137.987 15.1111 137.987 16.2051C137.987 17.0256 138.057 17.9145 137.987 18.8034C137.987 19.7607 137.987 20.7863 138.057 21.7436C138.057 22.1538 138.481 22.4274 138.834 22.5641C139.469 22.7009 140.104 22.6325 140.739 22.4957C140.88 22.8376 140.951 23.2479 140.951 23.5897C140.386 23.8632 139.751 23.9316 139.116 24C138.269 24 137.281 23.8632 136.646 23.2479C136.152 22.7692 136.152 22.0171 136.081 21.4017C136.011 20.0342 136.081 18.5983 136.011 17.2308C136.011 15.7949 136.011 14.4274 136.011 12.9915C135.446 12.9915 134.881 12.9915 134.387 12.9915C134.387 12.5128 134.387 12.0342 134.387 11.6239C134.952 11.6239 135.446 11.6239 136.011 11.6239C136.222 10.5299 136.222 9.4359 136.363 8.47863ZM61.5519 11.2137C62.0459 11.2137 62.6105 11.2137 63.1045 11.3504C64.2338 11.6923 65.2219 12.5128 65.7865 13.4701C66.2805 14.359 66.6334 15.3162 66.704 16.3419C66.7746 17.7094 66.8451 19.0769 66.3511 20.3761C65.9276 21.6068 65.0807 22.7009 63.8809 23.3162C62.6811 23.9316 61.2695 24 59.9992 23.6581C58.8699 23.3846 57.8819 22.6325 57.1761 21.6752C56.4703 20.6496 56.188 19.4188 56.188 18.1197C56.188 16.9573 56.1174 15.7265 56.5409 14.5641C56.8938 13.4701 57.6701 12.4444 58.7288 11.7607C59.2228 11.4872 59.7169 11.2137 60.2815 11.1453C60.7049 11.2137 61.1284 11.2137 61.5519 11.2137ZM60.5638 12.7863C59.9286 12.9231 59.2934 13.3333 58.9405 13.8803C58.4465 14.7009 58.3053 15.6581 58.3053 16.6154C58.2347 17.2991 58.3053 17.9829 58.3759 18.6667C58.517 19.4872 58.6582 20.3761 59.0817 21.1282C59.5051 21.9487 60.4226 22.2906 61.3401 22.359C62.187 22.4274 63.1046 22.2222 63.7397 21.5385C64.2338 20.9915 64.5161 20.3761 64.5867 19.6239C64.7278 18.735 64.7278 17.8462 64.6572 17.0256C64.6572 16.1368 64.5161 15.1795 64.1632 14.2906C63.9515 13.7436 63.528 13.3333 63.034 13.0598C62.2576 12.6496 61.4107 12.5812 60.5638 12.7863ZM70.1622 11.6239C70.7269 11.4188 71.2915 11.2821 71.9267 11.2137C72.1384 11.7607 72.2796 12.3077 72.3501 12.9231C72.7736 12.7179 73.0559 12.3761 73.4794 12.1709C74.3263 11.5556 75.3849 11.2137 76.4436 11.2137C76.6553 11.2137 76.9376 11.2821 77.1494 11.4188C77.5023 11.6239 77.8551 11.7607 78.208 12.0342C78.4903 12.3077 78.7021 12.7179 78.9138 13.0598C79.4078 12.8547 79.7607 12.4444 80.1842 12.1709C80.8899 11.6923 81.7369 11.2821 82.7249 11.2137C83.5719 11.1453 84.4188 11.4188 85.054 11.9658C85.3363 12.2393 85.6186 12.5128 85.7598 12.8547C85.9009 13.1966 85.9715 13.5385 85.9715 13.9487C86.1126 15.8632 86.0421 17.8462 86.1126 19.7607C86.1126 21.0598 86.1126 22.359 86.1126 23.6581C85.4774 23.6581 84.7717 23.6581 84.1365 23.6581C84.1365 21.7436 84.1365 19.7607 84.1365 17.8462C84.1365 16.6154 84.1365 15.3846 84.0659 14.0855C83.9953 13.6752 83.7836 13.3333 83.4307 13.0598C83.0778 12.8547 82.5838 12.8547 82.0898 12.8547C81.3134 12.9231 80.6782 13.4017 80.043 13.8803C79.7607 14.0855 79.4784 14.359 79.1961 14.5641C79.1255 14.6325 79.1255 14.7692 79.1255 14.8376C79.1255 17.7778 79.1255 20.6496 79.1255 23.5897C78.4903 23.5897 77.7846 23.5897 77.1494 23.5897V16.7521C77.1494 16.2051 77.1494 15.6581 77.1494 15.1111C77.1494 14.5641 77.1494 13.9487 76.9376 13.4701C76.5142 12.9231 75.7378 12.7863 75.1026 12.9915C74.1146 13.1966 73.2676 13.812 72.4913 14.4957C72.3501 14.5641 72.3501 14.7009 72.3501 14.8376C72.3501 17.7778 72.3501 20.7179 72.3501 23.6581C71.7855 23.6581 71.2209 23.6581 70.6563 23.6581C70.5857 20.6496 70.6563 17.641 70.5151 14.6325C70.5151 13.9487 70.5151 13.265 70.374 12.5812C70.3034 12.2393 70.1622 11.8974 70.1622 11.6239ZM103.827 11.5556C104.463 11.4872 105.098 11.3504 105.733 11.2137C105.804 12.9231 105.804 14.6325 105.804 16.2735C105.804 18.735 105.804 21.1282 105.804 23.5897C105.168 23.5897 104.463 23.5897 103.827 23.5897C103.827 20.1026 103.827 16.6154 103.827 13.1282C103.827 12.6496 103.757 12.0342 103.827 11.5556ZM129.165 11.2821C130.506 11.4872 131.635 12.7179 131.705 14.0855C131.776 16.0684 131.705 18.1197 131.705 20.1026V20.7179C131.705 21.1282 131.705 21.5385 131.847 21.8803C131.917 22.2906 132.341 22.4957 132.623 22.7009C132.341 23.0427 132.129 23.5214 131.776 23.7949C131.564 24 131.282 23.7949 131.141 23.6581C130.647 23.3162 130.364 22.8376 130.082 22.2906C129.659 22.4957 129.376 22.906 128.882 23.1111C128.177 23.5897 127.33 23.7949 126.412 23.7949C125.636 23.7949 124.859 23.6581 124.154 23.3162C123.024 22.7009 122.389 21.4701 122.46 20.2393C122.46 19.0769 123.095 17.9145 124.012 17.2308C125.142 16.4103 126.624 16.1368 128.035 16C128.671 15.9316 129.306 15.9316 130.012 15.9316C130.012 15.3162 130.012 14.7009 129.87 14.0855C129.8 13.6068 129.517 13.0598 129.023 12.7863C128.459 12.5128 127.753 12.4444 127.118 12.5812C125.918 12.7179 124.789 13.1966 123.801 13.8803C123.518 13.5385 123.236 13.1966 123.024 12.7863C122.883 12.5812 123.095 12.4444 123.236 12.3761C124.577 11.6923 125.989 11.0769 127.541 11.0769H128.177C128.529 11.2137 128.812 11.2137 129.165 11.2821ZM128.318 17.3675C127.682 17.4359 127.118 17.4359 126.483 17.5726C125.777 17.7778 125.142 18.188 124.718 18.8034C124.507 19.1453 124.507 19.5556 124.507 19.9658C124.507 20.3761 124.436 20.8547 124.648 21.265C124.789 21.6752 125.142 22.0855 125.565 22.2222C126.059 22.4274 126.624 22.4274 127.188 22.4274C127.824 22.359 128.388 22.0171 128.882 21.6068C129.306 21.265 129.729 20.8547 129.729 20.3077C129.8 19.3504 129.8 18.3248 129.8 17.3675C129.306 17.4359 128.812 17.2991 128.318 17.3675ZM149.773 11.3504C150.902 11.6239 151.89 12.3077 152.596 13.1966C153.161 13.9487 153.514 14.7692 153.655 15.6581C153.796 16.4786 153.867 17.3675 153.796 18.2564C153.796 19.6923 153.302 21.0598 152.455 22.1538C151.749 23.0427 150.62 23.5897 149.561 23.7949C148.22 24 146.738 23.7949 145.538 22.9744C144.55 22.2906 143.915 21.1966 143.562 20.0342C143.351 19.4188 143.351 18.8718 143.28 18.2564C143.28 17.2308 143.28 16.2735 143.421 15.2479C143.703 14.1538 144.268 13.0598 145.115 12.2393C145.75 11.6239 146.597 11.2821 147.444 11.1453C148.291 11.1453 149.067 11.2137 149.773 11.3504ZM147.656 12.7863C146.738 12.9231 145.962 13.6068 145.68 14.4274C145.327 15.3162 145.327 16.2735 145.327 17.1624C145.327 18.0513 145.327 18.9402 145.538 19.7607C145.68 20.3761 145.821 20.9231 146.244 21.4017C146.597 21.8803 147.232 22.1538 147.797 22.2222C148.009 22.2906 148.291 22.2906 148.503 22.2906H148.714H148.926C149.42 22.2222 149.844 22.0855 150.267 21.8803C150.761 21.6068 151.114 21.1282 151.326 20.5812C151.537 19.9658 151.608 19.2821 151.679 18.6667C151.679 17.9145 151.749 17.1624 151.679 16.3419C151.608 15.5214 151.537 14.7009 151.114 14.0171C150.761 13.4701 150.267 13.0598 149.632 12.7863C148.997 12.6496 148.291 12.6496 147.656 12.7863ZM157.184 11.6923C157.819 11.5556 158.383 11.3504 158.948 11.2137C159.301 11.8291 159.301 12.5128 159.372 13.1282C159.654 12.9231 159.936 12.6496 160.218 12.3761C161.065 11.5556 162.336 11.0769 163.536 11.2821V11.4188C163.253 11.9658 163.112 12.5812 162.83 13.1966C162.83 13.3333 162.618 13.265 162.547 13.265C162.053 13.265 161.418 13.265 160.995 13.5385C160.501 13.812 160.148 14.1538 159.795 14.5641C159.442 14.9744 159.513 15.5214 159.513 16C159.513 16.6838 159.442 17.3675 159.513 18.0513C159.513 19.8974 159.513 21.812 159.513 23.6581C158.877 23.6581 158.172 23.6581 157.537 23.6581C157.537 21.6068 157.537 19.4872 157.537 17.4359C157.537 16 157.537 14.6325 157.466 13.1966C157.395 12.6496 157.254 12.1709 157.184 11.6923ZM109.615 11.6923C110.179 11.4872 110.815 11.2821 111.379 11.2821C111.591 11.8291 111.732 12.4444 111.803 12.9915C112.297 12.6496 112.791 12.2393 113.285 11.9658C114.343 11.3504 115.614 10.9402 116.743 11.3504C117.449 11.5556 118.084 11.9658 118.507 12.5812C118.86 12.9915 118.931 13.6068 119.002 14.0855C119.143 16 119.072 17.8462 119.072 19.7607C119.072 21.0598 119.072 22.2906 119.072 23.5214C118.437 23.5214 117.731 23.5214 117.096 23.5214C117.096 21.4701 117.025 19.3504 117.025 17.2991C117.025 16.1368 117.025 14.9744 116.884 13.812C116.672 13.265 116.178 12.7863 115.543 12.7863C115.12 12.7863 114.626 12.7863 114.202 12.9231C113.285 13.265 112.438 13.812 111.661 14.4274C111.661 17.4359 111.661 20.5128 111.661 23.5214C111.097 23.5214 110.532 23.5214 109.968 23.5214C109.968 21.812 109.897 20.1026 109.897 18.3248C109.897 16.547 109.897 14.7692 109.756 12.9915C109.897 12.6496 109.756 12.1709 109.615 11.6923Z" fill="#FF5A00"/>
</svg>
