<svg width="73" height="72" viewBox="0 0 73 72" fill="none" xmlns="http://www.w3.org/2000/svg">
<path d="M47.9932 37.4268C47.4865 37.4268 47.0598 37.0401 46.9932 36.5335C46.6732 33.5201 45.0465 30.7868 42.5398 29.0535C42.0865 28.7335 41.9798 28.1201 42.2865 27.6668C42.6065 27.2135 43.2332 27.1068 43.6732 27.4135C46.6598 29.4801 48.5798 32.7335 48.9665 36.3201C49.0198 36.8668 48.6332 37.3601 48.0732 37.4268C48.0598 37.4268 48.0198 37.4268 47.9932 37.4268Z" fill="#004D00"/>
<path d="M25.1532 37.4934C25.1132 37.4934 25.0865 37.4934 25.0465 37.4934C24.4999 37.4267 24.0999 36.9334 24.1532 36.3867C24.5132 32.8 26.4199 29.56 29.3665 27.4667C29.8199 27.1467 30.4465 27.2534 30.7665 27.7067C31.0865 28.16 30.9799 28.7867 30.5265 29.1067C28.0465 30.8534 26.4465 33.5867 26.1399 36.6C26.0999 37.1067 25.6599 37.4934 25.1532 37.4934Z" fill="#004D00"/>
<path d="M36.5798 50.1469C34.6065 50.1469 32.7265 49.6936 30.9665 48.8136C30.4731 48.5603 30.2731 47.9603 30.5265 47.4669C30.7798 46.9736 31.3798 46.7736 31.8731 47.0269C34.7531 48.4803 38.2198 48.5069 41.1265 47.1069C41.6198 46.8669 42.2198 47.0803 42.4598 47.5736C42.6998 48.0669 42.4865 48.6669 41.9931 48.9069C40.2865 49.7336 38.4731 50.1469 36.5798 50.1469Z" fill="#004D00"/>
<path d="M36.5802 31.2532C33.9802 31.2532 31.8735 29.1465 31.8735 26.5465C31.8735 23.9465 33.9802 21.8398 36.5802 21.8398C39.1802 21.8398 41.2869 23.9465 41.2869 26.5465C41.2869 29.1465 39.1669 31.2532 36.5802 31.2532ZM36.5802 23.8532C35.0869 23.8532 33.8735 25.0665 33.8735 26.5598C33.8735 28.0532 35.0869 29.2665 36.5802 29.2665C38.0735 29.2665 39.2869 28.0532 39.2869 26.5598C39.2869 25.0665 38.0602 23.8532 36.5802 23.8532Z" fill="#004D00"/>
<path d="M26.9401 47.5598C24.3401 47.5598 22.2334 45.4532 22.2334 42.8532C22.2334 40.2665 24.3401 38.1465 26.9401 38.1465C29.5401 38.1465 31.6467 40.2532 31.6467 42.8532C31.6467 45.4398 29.5401 47.5598 26.9401 47.5598ZM26.9401 40.1465C25.4467 40.1465 24.2334 41.3598 24.2334 42.8532C24.2334 44.3465 25.4467 45.5598 26.9401 45.5598C28.4334 45.5598 29.6467 44.3465 29.6467 42.8532C29.6467 41.3598 28.4334 40.1465 26.9401 40.1465Z" fill="#004D00"/>
<path d="M46.0602 47.5598C43.4602 47.5598 41.3535 45.4532 41.3535 42.8532C41.3535 40.2665 43.4602 38.1465 46.0602 38.1465C48.6602 38.1465 50.7668 40.2532 50.7668 42.8532C50.7535 45.4398 48.6468 47.5598 46.0602 47.5598ZM46.0602 40.1465C44.5668 40.1465 43.3535 41.3598 43.3535 42.8532C43.3535 44.3465 44.5668 45.5598 46.0602 45.5598C47.5535 45.5598 48.7668 44.3465 48.7668 42.8532C48.7535 41.3598 47.5535 40.1465 46.0602 40.1465Z" fill="#004D00"/>
<circle cx="36.5" cy="36" r="35.5" fill="white" fill-opacity="0.02" stroke="#004D00"/>
</svg>
