<svg width="201" height="48" viewBox="0 0 201 48" fill="none" xmlns="http://www.w3.org/2000/svg">
<path d="M169.915 23.5535C169.915 26.1894 169.384 28.5199 168.32 30.5451C167.256 32.5381 165.644 34.0971 163.484 35.2222C161.325 36.3473 158.601 36.9099 155.313 36.9099C150.671 36.9099 147.125 35.7205 144.675 33.3417C142.225 30.963 141 27.7163 141 23.6017V2H149.268V22.6855C149.268 25.3215 149.784 27.202 150.816 28.327C151.88 29.4521 153.443 30.0147 155.506 30.0147C156.957 30.0147 158.133 29.7575 159.036 29.2432C159.938 28.7289 160.599 27.9252 161.018 26.8323C161.47 25.7393 161.695 24.341 161.695 22.6373V2H169.915V23.5535Z" fill="#1A1A1A"/>
<path d="M191.233 9.4738C194.198 9.4738 196.568 10.6471 198.341 12.9937C200.114 15.3082 201 18.6834 201 23.1195C201 26.1412 200.565 28.6806 199.694 30.7379C198.824 32.7952 197.631 34.3382 196.116 35.3669C194.633 36.3955 192.925 36.9099 190.991 36.9099C189.734 36.9099 188.654 36.7491 187.751 36.4277C186.881 36.1062 186.123 35.7044 185.478 35.2222C184.866 34.7079 184.35 34.1936 183.931 33.6792H183.593C183.689 34.29 183.77 34.9329 183.834 35.608C183.899 36.283 183.931 37.0063 183.931 37.7778V48H175.759V9.95598H182.384L183.544 13.3312H183.931C184.382 12.624 184.93 11.9811 185.575 11.4025C186.252 10.8239 187.058 10.3578 187.993 10.0042C188.928 9.65059 190.008 9.4738 191.233 9.4738ZM188.38 15.8868C187.284 15.8868 186.413 16.1279 185.769 16.6101C185.156 17.0922 184.705 17.8155 184.415 18.7799C184.125 19.7121 183.963 20.9015 183.931 22.348V23.0713C183.931 24.6464 184.06 25.9804 184.318 27.0734C184.608 28.1342 185.076 28.9539 185.72 29.5325C186.397 30.079 187.316 30.3522 188.476 30.3522C189.411 30.3522 190.185 30.095 190.797 29.5807C191.442 29.0342 191.91 28.2145 192.2 27.1216C192.522 26.0287 192.683 24.6625 192.683 23.0231C192.683 20.5479 192.329 18.7477 191.619 17.6226C190.91 16.4654 189.83 15.8868 188.38 15.8868Z" fill="#1A1A1A"/>
<path d="M16.2678 8.5052C15.0201 8.5052 13.9004 8.76147 12.9087 9.27403C11.9489 9.75455 11.1331 10.4753 10.4613 11.4364C9.78947 12.3974 9.27761 13.5506 8.9257 14.8961C8.57379 16.2416 8.39783 17.7632 8.39783 19.461C8.39783 21.7675 8.68576 23.7216 9.26161 25.3234C9.83746 26.9251 10.7172 28.1424 11.9009 28.9753C13.1166 29.8082 14.6522 30.2247 16.5077 30.2247C17.9474 30.2247 19.371 30.0485 20.7786 29.6961C22.1863 29.3117 23.6739 28.8312 25.2415 28.2545V35.174C23.7379 35.8147 22.2183 36.2792 20.6827 36.5675C19.1471 36.8558 17.4835 37 15.692 37C12.0769 37 9.10165 36.2792 6.76625 34.8377C4.46285 33.3641 2.75129 31.3139 1.63158 28.687C0.54386 26.0281 0 22.9368 0 19.413C0 16.8182 0.351909 14.4476 1.05573 12.3013C1.75955 10.1229 2.79928 8.24892 4.17492 6.67922C5.58256 5.10952 7.29412 3.89221 9.3096 3.02727C11.3251 2.16234 13.6605 1.72987 16.3158 1.72987C17.9794 1.72987 19.6909 1.9381 21.4505 2.35455C23.242 2.771 24.9536 3.36364 26.5851 4.13247L24.0418 10.6675C22.7621 10.0589 21.4825 9.54632 20.2028 9.12987C18.9231 8.71342 17.6115 8.5052 16.2678 8.5052Z" fill="#1971F0"/>
<path d="M42.0169 9.61039C45.44 9.61039 48.0953 10.4113 49.9829 12.013C51.8704 13.5827 52.8141 15.9212 52.8141 19.0286V36.5195H47.1996L45.616 32.9636H45.424C44.6882 33.8926 43.9204 34.6615 43.1206 35.2701C42.3528 35.8788 41.4571 36.3113 40.4333 36.5675C39.4416 36.8558 38.2099 37 36.7383 37C35.2027 37 33.811 36.6957 32.5634 36.087C31.3477 35.4784 30.3879 34.5494 29.6841 33.3C28.9803 32.0507 28.6284 30.4649 28.6284 28.5429C28.6284 25.7238 29.6041 23.6416 31.5556 22.2961C33.5391 20.9507 36.4344 20.1978 40.2414 20.0377L44.7522 19.8935V19.1247C44.7522 17.8433 44.4163 16.9143 43.7445 16.3377C43.1046 15.761 42.2089 15.4727 41.0572 15.4727C39.9055 15.4727 38.7058 15.6649 37.4581 16.0494C36.2104 16.4017 34.9467 16.8502 33.6671 17.3948L31.2197 12.013C32.6593 11.2442 34.2909 10.6515 36.1144 10.2351C37.938 9.81862 39.9055 9.61039 42.0169 9.61039ZM42.3048 24.6026C40.2894 24.6667 38.8817 25.0351 38.0819 25.7078C37.2821 26.3485 36.8822 27.2294 36.8822 28.3506C36.8822 29.3437 37.1702 30.0645 37.746 30.513C38.3219 30.9615 39.0577 31.1857 39.9534 31.1857C41.2971 31.1857 42.4328 30.7853 43.3606 29.9844C44.2883 29.1515 44.7522 28.0303 44.7522 26.6208V24.5065L42.3048 24.6026Z" fill="#1971F0"/>
<path d="M70.1512 30.561C70.9829 30.561 71.7507 30.481 72.4546 30.3208C73.1584 30.1606 73.8782 29.9524 74.614 29.6961V35.6545C73.7502 36.039 72.7585 36.3593 71.6388 36.6156C70.5191 36.8719 69.1914 37 67.6558 37C66.0242 37 64.5686 36.7437 63.2889 36.2312C62.0412 35.6866 61.0495 34.7736 60.3137 33.4922C59.6099 32.1788 59.258 30.3688 59.258 28.0623V16.1935H55.8988V12.8299L59.9298 10.2351L62.1372 4.66104H67.3199V10.139H74.3261V16.1935H67.3199V27.774C67.3199 28.703 67.5758 29.4078 68.0877 29.8883C68.5996 30.3368 69.2874 30.561 70.1512 30.561Z" fill="#1971F0"/>
<path d="M89.504 37C86.8807 37 84.6093 36.5355 82.6898 35.6065C80.8023 34.6455 79.3467 33.1719 78.3229 31.1857C77.3312 29.1675 76.8353 26.5887 76.8353 23.4494C76.8353 20.2459 77.3952 17.6351 78.5149 15.6169C79.6666 13.5667 81.2502 12.061 83.2656 11.1C85.2811 10.139 87.5845 9.65844 90.1759 9.65844C91.9034 9.65844 93.455 9.83463 94.8307 10.187C96.2383 10.5394 97.486 10.9879 98.5737 11.5325L96.2223 17.6351C95.1026 17.1866 94.0629 16.8182 93.1031 16.5299C92.1434 16.2416 91.1676 16.0974 90.1759 16.0974C89.0882 16.0974 88.1604 16.3697 87.3926 16.9143C86.6248 17.4268 86.0329 18.2277 85.617 19.3169C85.2331 20.4061 85.0412 21.7675 85.0412 23.4013C85.0412 25.0351 85.2491 26.3805 85.665 27.4377C86.0809 28.4628 86.6728 29.2316 87.4406 29.7442C88.2084 30.2567 89.1361 30.513 90.2239 30.513C91.6315 30.513 92.9432 30.3048 94.1588 29.8883C95.4065 29.4719 96.5902 28.9113 97.7099 28.2065V34.8377C96.6222 35.5424 95.4385 36.087 94.1588 36.4714C92.8792 36.8238 91.3276 37 89.504 37Z" fill="#1971F0"/>
<path d="M110.108 6.39091C110.108 7.99264 110.06 9.4342 109.964 10.7156C109.868 11.9649 109.788 12.8779 109.724 13.4545H110.156C110.732 12.5255 111.388 11.7887 112.124 11.2442C112.86 10.6996 113.691 10.2991 114.619 10.0429C115.547 9.78658 116.539 9.65844 117.594 9.65844C119.418 9.65844 121.034 9.99481 122.441 10.6675C123.849 11.3403 124.953 12.3814 125.752 13.7909C126.584 15.2004 127 17.0424 127 19.3169V36.5195H118.89V21.5753C118.89 19.7173 118.586 18.3398 117.978 17.4429C117.402 16.5139 116.459 16.0494 115.147 16.0494C113.867 16.0494 112.86 16.3857 112.124 17.0584C111.388 17.6991 110.86 18.6442 110.54 19.8935C110.252 21.1429 110.108 22.6805 110.108 24.5065V36.5195H101.998V0H110.108V6.39091Z" fill="#1971F0"/>
</svg>
