<svg width="48" height="48" viewBox="0 0 48 48" fill="none" xmlns="http://www.w3.org/2000/svg">
<path d="M12.3583 45.4998C12.1583 45.4998 11.9383 45.4798 11.7583 45.4598L7.41832 44.8598C5.33832 44.5798 3.45832 42.7198 3.13832 40.5998L2.53832 36.2198C2.33832 34.8198 2.93832 32.9998 3.93832 31.9798L12.7183 23.1998C11.2983 17.5198 12.9383 11.5198 17.1183 7.37985C23.5983 0.919847 34.1383 0.899847 40.6383 7.37985C43.7783 10.5198 45.4983 14.6998 45.4983 19.1398C45.4983 23.5798 43.7783 27.7598 40.6383 30.8998C36.4383 35.0598 30.4583 36.6998 24.8183 35.2598L16.0183 44.0398C15.1783 44.9198 13.6783 45.4998 12.3583 45.4998ZM28.8583 5.51985C25.3583 5.51985 21.8783 6.83985 19.2183 9.49985C15.6183 13.0798 14.3183 18.3198 15.8183 23.1998C15.9783 23.7398 15.8383 24.2998 15.4383 24.6998L6.03832 34.0998C5.69832 34.4398 5.41832 35.3198 5.47832 35.7798L6.07832 40.1598C6.19832 40.9198 7.01832 41.7799 7.77832 41.8798L12.1383 42.4798C12.6183 42.5598 13.4983 42.2798 13.8383 41.9398L23.2783 32.5198C23.6783 32.1198 24.2583 31.9998 24.7783 32.1598C29.5983 33.6798 34.8583 32.3798 38.4583 28.7798C41.0183 26.2198 42.4383 22.7798 42.4383 19.1398C42.4383 15.4798 41.0183 12.0598 38.4583 9.49985C35.8583 6.85985 32.3583 5.51985 28.8583 5.51985Z" fill="#00255C"/>
<path d="M18.3802 41.0804C18.0002 41.0804 17.6202 40.9404 17.3202 40.6404L12.7202 36.0404C12.1402 35.4604 12.1402 34.5004 12.7202 33.9204C13.3002 33.3404 14.2602 33.3404 14.8402 33.9204L19.4402 38.5204C20.0202 39.1004 20.0202 40.0604 19.4402 40.6404C19.1402 40.9404 18.7602 41.0804 18.3802 41.0804Z" fill="#00255C"/>
<path d="M29 23.5C26.52 23.5 24.5 21.48 24.5 19C24.5 16.52 26.52 14.5 29 14.5C31.48 14.5 33.5 16.52 33.5 19C33.5 21.48 31.48 23.5 29 23.5ZM29 17.5C28.18 17.5 27.5 18.18 27.5 19C27.5 19.82 28.18 20.5 29 20.5C29.82 20.5 30.5 19.82 30.5 19C30.5 18.18 29.82 17.5 29 17.5Z" fill="#00255C"/>
</svg>
