<svg width="48" height="48" viewBox="0 0 48 48" fill="none" xmlns="http://www.w3.org/2000/svg">
<path d="M24 31.5C19.86 31.5 16.5 28.14 16.5 24C16.5 19.86 19.86 16.5 24 16.5C28.14 16.5 31.5 19.86 31.5 24C31.5 28.14 28.14 31.5 24 31.5ZM24 19.5C21.52 19.5 19.5 21.52 19.5 24C19.5 26.48 21.52 28.5 24 28.5C26.48 28.5 28.5 26.48 28.5 24C28.5 21.52 26.48 19.5 24 19.5Z" fill="#00255C"/>
<path d="M30.42 44.3796C30 44.3796 29.58 44.3196 29.16 44.2196C27.92 43.8796 26.88 43.0996 26.22 41.9996L25.98 41.5996C24.8 39.5596 23.18 39.5596 22 41.5996L21.78 41.9796C21.12 43.0996 20.08 43.8996 18.84 44.2196C17.58 44.5596 16.28 44.3796 15.18 43.7196L11.74 41.7396C10.52 41.0396 9.64 39.8996 9.26 38.5196C8.9 37.1396 9.08 35.7196 9.78 34.4996C10.36 33.4796 10.52 32.5596 10.18 31.9796C9.84 31.3996 8.98 31.0596 7.8 31.0596C4.88 31.0596 2.5 28.6796 2.5 25.7596V22.2396C2.5 19.3196 4.88 16.9396 7.8 16.9396C8.98 16.9396 9.84 16.5996 10.18 16.0196C10.52 15.4396 10.38 14.5196 9.78 13.4996C9.08 12.2796 8.9 10.8396 9.26 9.4796C9.62 8.0996 10.5 6.9596 11.74 6.2596L15.2 4.2796C17.46 2.9396 20.44 3.7196 21.8 6.0196L22.04 6.4196C23.22 8.4596 24.84 8.4596 26.02 6.4196L26.24 6.0396C27.6 3.7196 30.58 2.9396 32.86 4.2996L36.3 6.2796C37.52 6.9796 38.4 8.1196 38.78 9.4996C39.14 10.8796 38.96 12.2996 38.26 13.5196C37.68 14.5396 37.52 15.4596 37.86 16.0396C38.2 16.6196 39.06 16.9596 40.24 16.9596C43.16 16.9596 45.54 19.3396 45.54 22.2596V25.7796C45.54 28.6996 43.16 31.0796 40.24 31.0796C39.06 31.0796 38.2 31.4196 37.86 31.9996C37.52 32.5796 37.66 33.4996 38.26 34.5196C38.96 35.7396 39.16 37.1796 38.78 38.5396C38.42 39.9196 37.54 41.0596 36.3 41.7596L32.84 43.7396C32.08 44.1596 31.26 44.3796 30.42 44.3796ZM24 36.9796C25.78 36.9796 27.44 38.0996 28.58 40.0796L28.8 40.4596C29.04 40.8796 29.44 41.1796 29.92 41.2996C30.4 41.4196 30.88 41.3596 31.28 41.1196L34.74 39.1196C35.26 38.8196 35.66 38.3196 35.82 37.7196C35.98 37.1196 35.9 36.4996 35.6 35.9796C34.46 34.0196 34.32 31.9996 35.2 30.4596C36.08 28.9196 37.9 28.0396 40.18 28.0396C41.46 28.0396 42.48 27.0196 42.48 25.7396V22.2196C42.48 20.9596 41.46 19.9196 40.18 19.9196C37.9 19.9196 36.08 19.0396 35.2 17.4996C34.32 15.9596 34.46 13.9396 35.6 11.9796C35.9 11.4596 35.98 10.8396 35.82 10.2396C35.66 9.6396 35.28 9.1596 34.76 8.8396L31.3 6.8596C30.44 6.3396 29.3 6.6396 28.78 7.5196L28.56 7.8996C27.42 9.8796 25.76 10.9996 23.98 10.9996C22.2 10.9996 20.54 9.8796 19.4 7.8996L19.18 7.4996C18.68 6.6596 17.56 6.3596 16.7 6.8596L13.24 8.8596C12.72 9.1596 12.32 9.6596 12.16 10.2596C12 10.8596 12.08 11.4796 12.38 11.9996C13.52 13.9596 13.66 15.9796 12.78 17.5196C11.9 19.0596 10.08 19.9396 7.8 19.9396C6.52 19.9396 5.5 20.9596 5.5 22.2396V25.7596C5.5 27.0196 6.52 28.0596 7.8 28.0596C10.08 28.0596 11.9 28.9396 12.78 30.4796C13.66 32.0196 13.52 34.0396 12.38 35.9996C12.08 36.5196 12 37.1396 12.16 37.7396C12.32 38.3396 12.7 38.8196 13.22 39.1396L16.68 41.1196C17.1 41.3796 17.6 41.4396 18.06 41.3196C18.54 41.1996 18.94 40.8796 19.2 40.4596L19.42 40.0796C20.56 38.1196 22.22 36.9796 24 36.9796Z" fill="#00255C"/>
</svg>
